M48
; DRILL file {KiCad 9.0.4} date 2026-03-02T16:48:23-0800
; FORMAT={-:-/ absolute / metric / decimal}
; #@! TF.CreationDate,2026-03-02T16:48:23-08:00
; #@! TF.GenerationSoftware,Kicad,Pcbnew,9.0.4
; #@! TF.FileFunction,Plated,1,2,PTH
FMAT,2
METRIC
; #@! TA.AperFunction,Plated,PTH,ComponentDrill
T1C0.800
; #@! TA.AperFunction,Plated,PTH,ComponentDrill
T2C1.200
; #@! TA.AperFunction,Plated,PTH,ComponentDrill
T3C3.200
%
G90
G05
T1
X129.695Y-43.45
X129.695Y-47.05
X129.816Y-147.45
X129.816Y-151.05
X132.895Y-43.45
X132.895Y-47.05
X133.017Y-147.45
X133.017Y-151.05
X149.4Y-147.45
X149.4Y-151.05
X152.6Y-147.45
X152.6Y-151.05
X175.99Y-43.45
X175.99Y-47.05
X179.19Y-43.45
X179.19Y-47.05
X216.811Y-43.45
X216.811Y-47.05
X218.448Y-147.45
X218.448Y-151.05
X220.011Y-43.45
X220.011Y-47.05
X221.648Y-147.45
X221.648Y-151.05
T2
X131.295Y-45.25
X131.416Y-149.25
X151.0Y-149.25
X177.59Y-45.25
X218.411Y-45.25
X220.048Y-149.25
T3
X87.0Y-41.25
X87.0Y-153.25
X239.0Y-41.25
X239.0Y-153.25
M30
