M48
; DRILL file {KiCad 9.0.4} date 2026-03-02T16:48:23-0800
; FORMAT={-:-/ absolute / metric / decimal}
; #@! TF.CreationDate,2026-03-02T16:48:23-08:00
; #@! TF.GenerationSoftware,Kicad,Pcbnew,9.0.4
; #@! TF.FileFunction,NonPlated,1,2,NPTH
FMAT,2
METRIC
; #@! TA.AperFunction,NonPlated,NPTH,ComponentDrill
T1C1.000
%
G90
G05
T1
X107.387Y-129.267
X107.468Y-123.237
X107.639Y-120.27
X107.764Y-126.348
X108.694Y-131.905
X109.142Y-64.227
X109.142Y-74.273
X109.354Y-67.221
X109.354Y-71.279
X109.456Y-117.943
X109.514Y-123.93
X110.065Y-61.423
X110.084Y-77.111
X110.657Y-69.907
X111.154Y-127.704
X111.244Y-133.38
X112.04Y-59.145
X112.04Y-79.355
X112.06Y-122.375
X112.065Y-132.013
X112.162Y-120.492
X112.203Y-117.54
X112.385Y-129.023
X112.815Y-66.55
X112.815Y-71.95
X112.908Y-134.817
X113.474Y-126.223
X113.492Y-114.847
X114.004Y-128.738
X114.225Y-133.47
X114.691Y-57.846
X114.691Y-80.654
X114.931Y-121.489
X115.047Y-136.914
X115.183Y-117.269
X115.461Y-65.158
X115.477Y-73.349
X115.97Y-113.214
X116.409Y-130.336
X116.869Y-119.303
X117.045Y-132.397
X117.685Y-57.675
X117.685Y-80.825
X117.944Y-137.439
X118.012Y-63.591
X118.029Y-74.92
X118.563Y-116.82
X118.925Y-113.283
X119.524Y-130.705
X120.426Y-120.102
X120.506Y-58.669
X120.506Y-79.831
X120.655Y-62.159
X120.655Y-76.341
X120.658Y-136.278
X120.945Y-115.054
X122.436Y-130.645
X122.527Y-133.959
X122.728Y-60.636
X122.852Y-136.001
X122.917Y-117.442
X123.479Y-120.374
X123.596Y-76.856
X123.621Y-128.082
X123.87Y-114.464
X123.999Y-123.28
X124.084Y-63.297
X124.084Y-75.203
X124.269Y-69.233
X124.451Y-72.224
X124.452Y-66.253
X125.421Y-130.839
X125.481Y-125.822
X125.808Y-135.543
X126.38Y-119.799
X126.525Y-62.228
X126.525Y-76.272
X126.656Y-115.476
X127.461Y-123.581
X127.937Y-127.771
X127.957Y-133.529
X128.284Y-130.036
X128.366Y-117.891
X128.561Y-120.806
X129.02Y-63.864
X129.02Y-74.636
X130.532Y-128.076
X130.7Y-66.324
X130.7Y-72.176
X130.992Y-123.254
X131.295Y-69.25
X131.416Y-125.25
X150.193Y-74.044
X150.344Y-62.498
X150.356Y-65.447
X150.685Y-76.957
X151.0Y-119.25
X151.0Y-122.25
X151.0Y-125.25
X151.0Y-128.25
X151.0Y-131.25
X151.107Y-71.172
X151.627Y-68.139
X151.831Y-59.951
X152.629Y-79.175
X152.978Y-68.872
X153.766Y-70.269
X154.429Y-119.25
X154.429Y-122.25
X154.429Y-125.25
X154.429Y-128.25
X154.429Y-131.25
X154.483Y-58.551
X155.437Y-67.181
X155.476Y-80.099
X156.34Y-71.79
X157.45Y-58.524
X157.857Y-119.25
X157.857Y-122.25
X157.857Y-125.25
X157.857Y-128.25
X157.857Y-131.25
X157.941Y-65.575
X158.343Y-73.849
X158.429Y-79.723
X158.695Y-62.697
X158.91Y-76.801
X159.543Y-59.835
X160.001Y-79.572
X161.081Y-78.372
X161.186Y-57.31
X161.286Y-119.25
X161.286Y-122.25
X161.286Y-125.25
X161.286Y-128.25
X161.286Y-131.25
X161.888Y-81.856
X162.605Y-61.393
X163.337Y-76.39
X163.601Y-55.588
X164.543Y-83.224
X164.714Y-119.25
X164.714Y-122.25
X164.714Y-125.25
X164.714Y-128.25
X164.714Y-131.25
X164.895Y-63.29
X165.911Y-75.099
X166.525Y-55.156
X167.509Y-83.126
X167.867Y-63.135
X168.143Y-119.25
X168.143Y-122.25
X168.143Y-125.25
X168.143Y-128.25
X168.143Y-131.25
X168.878Y-75.47
X169.27Y-56.349
X169.463Y-70.211
X169.895Y-67.364
X169.966Y-81.462
X170.732Y-72.918
X170.886Y-63.053
X170.993Y-58.742
X171.083Y-64.606
X171.309Y-78.795
X171.547Y-61.666
X171.571Y-119.25
X171.571Y-122.25
X171.571Y-125.25
X171.571Y-128.25
X171.571Y-131.25
X171.844Y-75.301
X173.751Y-63.814
X174.646Y-74.203
X175.0Y-119.25
X175.0Y-122.25
X175.0Y-125.25
X175.0Y-128.25
X175.0Y-131.25
X176.179Y-65.6
X176.767Y-72.101
X177.59Y-69.25
X194.39Y-122.012
X194.682Y-129.424
X194.806Y-126.538
X195.333Y-124.736
X196.135Y-119.692
X196.546Y-66.248
X196.611Y-71.249
X196.841Y-124.45
X196.867Y-74.194
X197.189Y-69.188
X197.261Y-63.366
X197.459Y-132.023
X197.679Y-116.497
X197.73Y-126.554
X198.201Y-134.859
X198.432Y-76.732
X198.478Y-129.195
X198.984Y-122.076
X198.997Y-71.561
X199.08Y-119.087
X199.21Y-61.109
X199.763Y-66.358
X199.943Y-114.724
X200.02Y-131.346
X200.568Y-127.543
X200.896Y-135.796
X200.965Y-78.281
X200.979Y-124.393
X201.592Y-73.038
X201.804Y-64.277
X201.883Y-67.279
X201.941Y-59.978
X201.959Y-119.568
X201.971Y-132.288
X202.029Y-70.271
X202.289Y-135.221
X202.315Y-122.194
X202.329Y-76.147
X202.383Y-129.333
X202.779Y-61.457
X202.818Y-115.286
X203.232Y-113.464
X203.699Y-134.697
X203.968Y-137.706
X204.027Y-78.599
X204.517Y-73.666
X204.834Y-120.066
X204.903Y-60.137
X205.445Y-64.613
X205.86Y-112.327
X205.895Y-132.682
X206.179Y-117.356
X206.574Y-80.104
X206.725Y-77.576
X206.781Y-137.908
X207.158Y-119.327
X207.293Y-74.726
X207.549Y-61.502
X207.558Y-58.163
X207.832Y-114.884
X208.076Y-130.798
X208.887Y-135.863
X209.483Y-63.751
X209.534Y-80.34
X209.689Y-116.51
X209.766Y-118.69
X209.928Y-133.037
X210.124Y-75.729
X210.298Y-113.269
X210.356Y-130.057
X210.445Y-72.954
X210.526Y-58.397
X210.957Y-66.375
X211.111Y-62.659
X211.277Y-137.368
X212.291Y-79.206
X212.319Y-70.642
X212.377Y-127.33
X212.436Y-117.251
X212.776Y-122.226
X212.964Y-129.276
X212.997Y-68.588
X213.066Y-59.953
X213.097Y-113.822
X213.107Y-75.672
X213.339Y-133.529
X213.429Y-124.632
X213.744Y-135.878
X213.956Y-119.459
X214.23Y-76.974
X214.307Y-116.53
X214.539Y-71.123
X214.648Y-62.486
X214.936Y-121.3
X214.995Y-65.426
X215.796Y-74.433
X215.897Y-126.289
X215.932Y-129.032
X216.346Y-133.516
X216.543Y-64.723
X216.639Y-123.521
X217.717Y-72.146
X217.927Y-118.121
X218.087Y-67.243
X218.223Y-121.009
X218.331Y-131.48
X218.411Y-69.25
X218.652Y-127.816
X220.048Y-125.25
M30
