%TF.GenerationSoftware,KiCad,Pcbnew,9.0.4*%
%TF.CreationDate,2026-03-02T17:36:09-08:00*%
%TF.ProjectId,hopf_01,686f7066-5f30-4312-9e6b-696361645f70,2.0*%
%TF.SameCoordinates,Original*%
%TF.FileFunction,Copper,L1,Top*%
%TF.FilePolarity,Positive*%
%FSLAX46Y46*%
G04 Gerber Fmt 4.6, Leading zero omitted, Abs format (unit mm)*
G04 Created by KiCad (PCBNEW 9.0.4) date 2026-03-02 17:36:09*
%MOMM*%
%LPD*%
G01*
G04 APERTURE LIST*
%TA.AperFunction,ComponentPad*%
%ADD10C,6.000000*%
%TD*%
%TA.AperFunction,ComponentPad*%
%ADD11C,1.500000*%
%TD*%
%TA.AperFunction,ComponentPad*%
%ADD12R,1.200000X2.200000*%
%TD*%
%TA.AperFunction,Conductor*%
%ADD13C,2.000000*%
%TD*%
G04 APERTURE END LIST*
D10*
%TO.P,MH1,1*%
%TO.N,GND*%
X4000000Y-4000000D03*
%TD*%
%TO.P,MH2,1*%
%TO.N,GND*%
X156000000Y-4000000D03*
%TD*%
%TO.P,MH3,1*%
%TO.N,GND*%
X156000000Y-116000000D03*
%TD*%
%TO.P,MH4,1*%
%TO.N,GND*%
X4000000Y-116000000D03*
%TD*%
D11*
%TO.P,J1,1*%
%TO.N,ANT1_SIG*%
X48294700Y-8000000D03*
D12*
%TO.P,J1,2*%
%TO.N,GND*%
X46694700Y-6200000D03*
%TO.P,J1,3*%
X49894700Y-6200000D03*
%TO.P,J1,4*%
X46694700Y-9800000D03*
%TO.P,J1,5*%
X49894700Y-9800000D03*
%TD*%
D11*
%TO.P,J2,1*%
%TO.N,ANT2_SIG*%
X94590400Y-8000000D03*
D12*
%TO.P,J2,2*%
%TO.N,GND*%
X92990400Y-6200000D03*
%TO.P,J2,3*%
X96190400Y-6200000D03*
%TO.P,J2,4*%
X92990400Y-9800000D03*
%TO.P,J2,5*%
X96190400Y-9800000D03*
%TD*%
D11*
%TO.P,J3,1*%
%TO.N,ANT3_SIG*%
X135411500Y-8000000D03*
D12*
%TO.P,J3,2*%
%TO.N,GND*%
X133811500Y-6200000D03*
%TO.P,J3,3*%
X137011500Y-6200000D03*
%TO.P,J3,4*%
X133811500Y-9800000D03*
%TO.P,J3,5*%
X137011500Y-9800000D03*
%TD*%
D11*
%TO.P,J4,1*%
%TO.N,ANT4_SIG*%
X48416500Y-112000000D03*
D12*
%TO.P,J4,2*%
%TO.N,GND*%
X46816500Y-110200000D03*
%TO.P,J4,3*%
X50016500Y-110200000D03*
%TO.P,J4,4*%
X46816500Y-113800000D03*
%TO.P,J4,5*%
X50016500Y-113800000D03*
%TD*%
D11*
%TO.P,J5,1*%
%TO.N,ANT5_SIG*%
X137048100Y-112000000D03*
D12*
%TO.P,J5,2*%
%TO.N,GND*%
X135448100Y-110200000D03*
%TO.P,J5,3*%
X138648100Y-110200000D03*
%TO.P,J5,4*%
X135448100Y-113800000D03*
%TO.P,J5,5*%
X138648100Y-113800000D03*
%TD*%
D11*
%TO.P,J6,1*%
%TO.N,ANT6_SIG*%
X68000000Y-112000000D03*
D12*
%TO.P,J6,2*%
%TO.N,GND*%
X66400000Y-110200000D03*
%TO.P,J6,3*%
X69600000Y-110200000D03*
%TO.P,J6,4*%
X66400000Y-113800000D03*
%TO.P,J6,5*%
X69600000Y-113800000D03*
%TD*%
D13*
%TO.N,GND*%
X5000000Y-5000000D02*
X155000000Y-5000000D01*
X155000000Y-5000000D02*
X155000000Y-115000000D01*
X155000000Y-115000000D02*
X5000000Y-115000000D01*
X5000000Y-115000000D02*
X5000000Y-5000000D01*
%TD*%
%TA.AperFunction,Conductor*%
%TO.N,GND*%
G36*
X54237730Y-2019685D02*
G01*
X54283485Y-2072489D01*
X54294691Y-2124000D01*
X54294691Y-13876000D01*
X54275006Y-13943039D01*
X54222202Y-13988794D01*
X54170691Y-14000000D01*
X42418691Y-14000000D01*
X42351652Y-13980315D01*
X42305897Y-13927511D01*
X42294691Y-13876000D01*
X42294691Y-5052155D01*
X45594700Y-5052155D01*
X45594700Y-5950000D01*
X46379014Y-5950000D01*
X46374620Y-5954394D01*
X46321959Y-6045606D01*
X46294700Y-6147339D01*
X46294700Y-6252661D01*
X46321959Y-6354394D01*
X46374620Y-6445606D01*
X46379014Y-6450000D01*
X45594700Y-6450000D01*
X45594700Y-7347844D01*
X45601101Y-7407372D01*
X45601103Y-7407379D01*
X45651345Y-7542086D01*
X45651349Y-7542093D01*
X45737509Y-7657187D01*
X45737512Y-7657190D01*
X45852606Y-7743350D01*
X45852613Y-7743354D01*
X45987320Y-7793596D01*
X45987327Y-7793598D01*
X46046855Y-7799999D01*
X46046872Y-7800000D01*
X46444700Y-7800000D01*
X46444700Y-6515686D01*
X46449094Y-6520080D01*
X46540306Y-6572741D01*
X46642039Y-6600000D01*
X46747361Y-6600000D01*
X46849094Y-6572741D01*
X46940306Y-6520080D01*
X46944700Y-6515686D01*
X46944700Y-7800000D01*
X47120200Y-7800000D01*
X47128885Y-7802550D01*
X47137847Y-7801262D01*
X47161887Y-7812240D01*
X47187239Y-7819685D01*
X47193166Y-7826525D01*
X47201403Y-7830287D01*
X47215692Y-7852521D01*
X47232994Y-7872489D01*
X47235281Y-7883003D01*
X47239177Y-7889065D01*
X47244200Y-7924000D01*
X47244200Y-8076000D01*
X47224515Y-8143039D01*
X47171711Y-8188794D01*
X47120200Y-8200000D01*
X46944700Y-8200000D01*
X46944700Y-9484314D01*
X46940306Y-9479920D01*
X46849094Y-9427259D01*
X46747361Y-9400000D01*
X46642039Y-9400000D01*
X46540306Y-9427259D01*
X46449094Y-9479920D01*
X46444700Y-9484314D01*
X46444700Y-8200000D01*
X46046855Y-8200000D01*
X45987327Y-8206401D01*
X45987320Y-8206403D01*
X45852613Y-8256645D01*
X45852606Y-8256649D01*
X45737512Y-8342809D01*
X45737509Y-8342812D01*
X45651349Y-8457906D01*
X45651345Y-8457913D01*
X45601103Y-8592620D01*
X45601101Y-8592627D01*
X45594700Y-8652155D01*
X45594700Y-9550000D01*
X46379014Y-9550000D01*
X46374620Y-9554394D01*
X46321959Y-9645606D01*
X46294700Y-9747339D01*
X46294700Y-9852661D01*
X46321959Y-9954394D01*
X46374620Y-10045606D01*
X46379014Y-10050000D01*
X45594700Y-10050000D01*
X45594700Y-10947844D01*
X45601101Y-11007372D01*
X45601103Y-11007379D01*
X45651345Y-11142086D01*
X45651349Y-11142093D01*
X45737509Y-11257187D01*
X45737512Y-11257190D01*
X45852606Y-11343350D01*
X45852613Y-11343354D01*
X45987320Y-11393596D01*
X45987327Y-11393598D01*
X46046855Y-11399999D01*
X46046872Y-11400000D01*
X46444700Y-11400000D01*
X46444700Y-10115686D01*
X46449094Y-10120080D01*
X46540306Y-10172741D01*
X46642039Y-10200000D01*
X46747361Y-10200000D01*
X46849094Y-10172741D01*
X46940306Y-10120080D01*
X46944700Y-10115686D01*
X46944700Y-11400000D01*
X47342528Y-11400000D01*
X47342544Y-11399999D01*
X47402072Y-11393598D01*
X47402079Y-11393596D01*
X47536786Y-11343354D01*
X47536793Y-11343350D01*
X47651887Y-11257190D01*
X47651890Y-11257187D01*
X47738050Y-11142093D01*
X47738054Y-11142086D01*
X47788296Y-11007379D01*
X47788298Y-11007372D01*
X47794699Y-10947844D01*
X47794700Y-10947827D01*
X47794700Y-10050000D01*
X47010386Y-10050000D01*
X47014780Y-10045606D01*
X47067441Y-9954394D01*
X47094700Y-9852661D01*
X47094700Y-9747339D01*
X47067441Y-9645606D01*
X47014780Y-9554394D01*
X47010386Y-9550000D01*
X47794700Y-9550000D01*
X47794700Y-9115525D01*
X47814385Y-9048486D01*
X47867189Y-9002731D01*
X47936347Y-8992787D01*
X47966151Y-9000964D01*
X47988280Y-9010130D01*
X48181110Y-9048486D01*
X48191230Y-9050499D01*
X48191234Y-9050500D01*
X48191235Y-9050500D01*
X48398166Y-9050500D01*
X48398167Y-9050499D01*
X48601120Y-9010130D01*
X48623246Y-9000964D01*
X48692715Y-8993495D01*
X48755194Y-9024769D01*
X48790848Y-9084857D01*
X48794700Y-9115525D01*
X48794700Y-9550000D01*
X49579014Y-9550000D01*
X49574620Y-9554394D01*
X49521959Y-9645606D01*
X49494700Y-9747339D01*
X49494700Y-9852661D01*
X49521959Y-9954394D01*
X49574620Y-10045606D01*
X49579014Y-10050000D01*
X48794700Y-10050000D01*
X48794700Y-10947844D01*
X48801101Y-11007372D01*
X48801103Y-11007379D01*
X48851345Y-11142086D01*
X48851349Y-11142093D01*
X48937509Y-11257187D01*
X48937512Y-11257190D01*
X49052606Y-11343350D01*
X49052613Y-11343354D01*
X49187320Y-11393596D01*
X49187327Y-11393598D01*
X49246855Y-11399999D01*
X49246872Y-11400000D01*
X49644700Y-11400000D01*
X49644700Y-10115686D01*
X49649094Y-10120080D01*
X49740306Y-10172741D01*
X49842039Y-10200000D01*
X49947361Y-10200000D01*
X50049094Y-10172741D01*
X50140306Y-10120080D01*
X50144700Y-10115686D01*
X50144700Y-11400000D01*
X50542528Y-11400000D01*
X50542544Y-11399999D01*
X50602072Y-11393598D01*
X50602079Y-11393596D01*
X50736786Y-11343354D01*
X50736793Y-11343350D01*
X50851887Y-11257190D01*
X50851890Y-11257187D01*
X50938050Y-11142093D01*
X50938054Y-11142086D01*
X50988296Y-11007379D01*
X50988298Y-11007372D01*
X50994699Y-10947844D01*
X50994700Y-10947827D01*
X50994700Y-10050000D01*
X50210386Y-10050000D01*
X50214780Y-10045606D01*
X50267441Y-9954394D01*
X50294700Y-9852661D01*
X50294700Y-9747339D01*
X50267441Y-9645606D01*
X50214780Y-9554394D01*
X50210386Y-9550000D01*
X50994700Y-9550000D01*
X50994700Y-8652172D01*
X50994699Y-8652155D01*
X50988298Y-8592627D01*
X50988296Y-8592620D01*
X50938054Y-8457913D01*
X50938050Y-8457906D01*
X50851890Y-8342812D01*
X50851887Y-8342809D01*
X50736793Y-8256649D01*
X50736786Y-8256645D01*
X50602079Y-8206403D01*
X50602072Y-8206401D01*
X50542544Y-8200000D01*
X50144700Y-8200000D01*
X50144700Y-9484314D01*
X50140306Y-9479920D01*
X50049094Y-9427259D01*
X49947361Y-9400000D01*
X49842039Y-9400000D01*
X49740306Y-9427259D01*
X49649094Y-9479920D01*
X49644700Y-9484314D01*
X49644700Y-8200000D01*
X49469200Y-8200000D01*
X49460514Y-8197449D01*
X49451553Y-8198738D01*
X49427512Y-8187759D01*
X49402161Y-8180315D01*
X49396233Y-8173474D01*
X49387997Y-8169713D01*
X49373707Y-8147478D01*
X49356406Y-8127511D01*
X49354118Y-8116996D01*
X49350223Y-8110935D01*
X49345200Y-8076000D01*
X49345200Y-7924000D01*
X49364885Y-7856961D01*
X49417689Y-7811206D01*
X49469200Y-7800000D01*
X49644700Y-7800000D01*
X49644700Y-6515686D01*
X49649094Y-6520080D01*
X49740306Y-6572741D01*
X49842039Y-6600000D01*
X49947361Y-6600000D01*
X50049094Y-6572741D01*
X50140306Y-6520080D01*
X50144700Y-6515686D01*
X50144700Y-7800000D01*
X50542528Y-7800000D01*
X50542544Y-7799999D01*
X50602072Y-7793598D01*
X50602079Y-7793596D01*
X50736786Y-7743354D01*
X50736793Y-7743350D01*
X50851887Y-7657190D01*
X50851890Y-7657187D01*
X50938050Y-7542093D01*
X50938054Y-7542086D01*
X50988296Y-7407379D01*
X50988298Y-7407372D01*
X50994699Y-7347844D01*
X50994700Y-7347827D01*
X50994700Y-6450000D01*
X50210386Y-6450000D01*
X50214780Y-6445606D01*
X50267441Y-6354394D01*
X50294700Y-6252661D01*
X50294700Y-6147339D01*
X50267441Y-6045606D01*
X50214780Y-5954394D01*
X50210386Y-5950000D01*
X50994700Y-5950000D01*
X50994700Y-5052172D01*
X50994699Y-5052155D01*
X50988298Y-4992627D01*
X50988296Y-4992620D01*
X50938054Y-4857913D01*
X50938050Y-4857906D01*
X50851890Y-4742812D01*
X50851887Y-4742809D01*
X50736793Y-4656649D01*
X50736786Y-4656645D01*
X50602079Y-4606403D01*
X50602072Y-4606401D01*
X50542544Y-4600000D01*
X50144700Y-4600000D01*
X50144700Y-5884314D01*
X50140306Y-5879920D01*
X50049094Y-5827259D01*
X49947361Y-5800000D01*
X49842039Y-5800000D01*
X49740306Y-5827259D01*
X49649094Y-5879920D01*
X49644700Y-5884314D01*
X49644700Y-4600000D01*
X49246855Y-4600000D01*
X49187327Y-4606401D01*
X49187320Y-4606403D01*
X49052613Y-4656645D01*
X49052606Y-4656649D01*
X48937512Y-4742809D01*
X48937509Y-4742812D01*
X48851349Y-4857906D01*
X48851345Y-4857913D01*
X48801103Y-4992620D01*
X48801101Y-4992627D01*
X48794700Y-5052155D01*
X48794700Y-5950000D01*
X49579014Y-5950000D01*
X49574620Y-5954394D01*
X49521959Y-6045606D01*
X49494700Y-6147339D01*
X49494700Y-6252661D01*
X49521959Y-6354394D01*
X49574620Y-6445606D01*
X49579014Y-6450000D01*
X48794700Y-6450000D01*
X48794700Y-6884474D01*
X48775015Y-6951513D01*
X48722211Y-6997268D01*
X48653053Y-7007212D01*
X48623249Y-6999036D01*
X48616354Y-6996180D01*
X48601120Y-6989870D01*
X48601116Y-6989869D01*
X48601112Y-6989868D01*
X48398169Y-6949500D01*
X48398165Y-6949500D01*
X48191235Y-6949500D01*
X48191230Y-6949500D01*
X47988287Y-6989868D01*
X47988280Y-6989870D01*
X47966151Y-6999036D01*
X47896682Y-7006503D01*
X47834203Y-6975228D01*
X47798551Y-6915138D01*
X47794700Y-6884474D01*
X47794700Y-6450000D01*
X47010386Y-6450000D01*
X47014780Y-6445606D01*
X47067441Y-6354394D01*
X47094700Y-6252661D01*
X47094700Y-6147339D01*
X47067441Y-6045606D01*
X47014780Y-5954394D01*
X47010386Y-5950000D01*
X47794700Y-5950000D01*
X47794700Y-5052172D01*
X47794699Y-5052155D01*
X47788298Y-4992627D01*
X47788296Y-4992620D01*
X47738054Y-4857913D01*
X47738050Y-4857906D01*
X47651890Y-4742812D01*
X47651887Y-4742809D01*
X47536793Y-4656649D01*
X47536786Y-4656645D01*
X47402079Y-4606403D01*
X47402072Y-4606401D01*
X47342544Y-4600000D01*
X46944700Y-4600000D01*
X46944700Y-5884314D01*
X46940306Y-5879920D01*
X46849094Y-5827259D01*
X46747361Y-5800000D01*
X46642039Y-5800000D01*
X46540306Y-5827259D01*
X46449094Y-5879920D01*
X46444700Y-5884314D01*
X46444700Y-4600000D01*
X46046855Y-4600000D01*
X45987327Y-4606401D01*
X45987320Y-4606403D01*
X45852613Y-4656645D01*
X45852606Y-4656649D01*
X45737512Y-4742809D01*
X45737509Y-4742812D01*
X45651349Y-4857906D01*
X45651345Y-4857913D01*
X45601103Y-4992620D01*
X45601101Y-4992627D01*
X45594700Y-5052155D01*
X42294691Y-5052155D01*
X42294691Y-2124000D01*
X42314376Y-2056961D01*
X42367180Y-2011206D01*
X42418691Y-2000000D01*
X54170691Y-2000000D01*
X54237730Y-2019685D01*
G37*
%TD.AperFunction*%
%TD*%
%TA.AperFunction,Conductor*%
%TO.N,GND*%
G36*
X100533419Y-2019685D02*
G01*
X100579174Y-2072489D01*
X100590380Y-2124000D01*
X100590380Y-13876000D01*
X100570695Y-13943039D01*
X100517891Y-13988794D01*
X100466380Y-14000000D01*
X88714380Y-14000000D01*
X88647341Y-13980315D01*
X88601586Y-13927511D01*
X88590380Y-13876000D01*
X88590380Y-5052155D01*
X91890400Y-5052155D01*
X91890400Y-5950000D01*
X92674714Y-5950000D01*
X92670320Y-5954394D01*
X92617659Y-6045606D01*
X92590400Y-6147339D01*
X92590400Y-6252661D01*
X92617659Y-6354394D01*
X92670320Y-6445606D01*
X92674714Y-6450000D01*
X91890400Y-6450000D01*
X91890400Y-7347844D01*
X91896801Y-7407372D01*
X91896803Y-7407379D01*
X91947045Y-7542086D01*
X91947049Y-7542093D01*
X92033209Y-7657187D01*
X92033212Y-7657190D01*
X92148306Y-7743350D01*
X92148313Y-7743354D01*
X92283020Y-7793596D01*
X92283027Y-7793598D01*
X92342555Y-7799999D01*
X92342572Y-7800000D01*
X92740400Y-7800000D01*
X92740400Y-6515686D01*
X92744794Y-6520080D01*
X92836006Y-6572741D01*
X92937739Y-6600000D01*
X93043061Y-6600000D01*
X93144794Y-6572741D01*
X93236006Y-6520080D01*
X93240400Y-6515686D01*
X93240400Y-7800000D01*
X93415900Y-7800000D01*
X93424585Y-7802550D01*
X93433547Y-7801262D01*
X93457587Y-7812240D01*
X93482939Y-7819685D01*
X93488866Y-7826525D01*
X93497103Y-7830287D01*
X93511392Y-7852521D01*
X93528694Y-7872489D01*
X93530981Y-7883003D01*
X93534877Y-7889065D01*
X93539900Y-7924000D01*
X93539900Y-8076000D01*
X93520215Y-8143039D01*
X93467411Y-8188794D01*
X93415900Y-8200000D01*
X93240400Y-8200000D01*
X93240400Y-9484314D01*
X93236006Y-9479920D01*
X93144794Y-9427259D01*
X93043061Y-9400000D01*
X92937739Y-9400000D01*
X92836006Y-9427259D01*
X92744794Y-9479920D01*
X92740400Y-9484314D01*
X92740400Y-8200000D01*
X92342555Y-8200000D01*
X92283027Y-8206401D01*
X92283020Y-8206403D01*
X92148313Y-8256645D01*
X92148306Y-8256649D01*
X92033212Y-8342809D01*
X92033209Y-8342812D01*
X91947049Y-8457906D01*
X91947045Y-8457913D01*
X91896803Y-8592620D01*
X91896801Y-8592627D01*
X91890400Y-8652155D01*
X91890400Y-9550000D01*
X92674714Y-9550000D01*
X92670320Y-9554394D01*
X92617659Y-9645606D01*
X92590400Y-9747339D01*
X92590400Y-9852661D01*
X92617659Y-9954394D01*
X92670320Y-10045606D01*
X92674714Y-10050000D01*
X91890400Y-10050000D01*
X91890400Y-10947844D01*
X91896801Y-11007372D01*
X91896803Y-11007379D01*
X91947045Y-11142086D01*
X91947049Y-11142093D01*
X92033209Y-11257187D01*
X92033212Y-11257190D01*
X92148306Y-11343350D01*
X92148313Y-11343354D01*
X92283020Y-11393596D01*
X92283027Y-11393598D01*
X92342555Y-11399999D01*
X92342572Y-11400000D01*
X92740400Y-11400000D01*
X92740400Y-10115686D01*
X92744794Y-10120080D01*
X92836006Y-10172741D01*
X92937739Y-10200000D01*
X93043061Y-10200000D01*
X93144794Y-10172741D01*
X93236006Y-10120080D01*
X93240400Y-10115686D01*
X93240400Y-11400000D01*
X93638228Y-11400000D01*
X93638244Y-11399999D01*
X93697772Y-11393598D01*
X93697779Y-11393596D01*
X93832486Y-11343354D01*
X93832493Y-11343350D01*
X93947587Y-11257190D01*
X93947590Y-11257187D01*
X94033750Y-11142093D01*
X94033754Y-11142086D01*
X94083996Y-11007379D01*
X94083998Y-11007372D01*
X94090399Y-10947844D01*
X94090400Y-10947827D01*
X94090400Y-10050000D01*
X93306086Y-10050000D01*
X93310480Y-10045606D01*
X93363141Y-9954394D01*
X93390400Y-9852661D01*
X93390400Y-9747339D01*
X93363141Y-9645606D01*
X93310480Y-9554394D01*
X93306086Y-9550000D01*
X94090400Y-9550000D01*
X94090400Y-9115525D01*
X94110085Y-9048486D01*
X94162889Y-9002731D01*
X94232047Y-8992787D01*
X94261851Y-9000964D01*
X94283980Y-9010130D01*
X94476810Y-9048486D01*
X94486930Y-9050499D01*
X94486934Y-9050500D01*
X94486935Y-9050500D01*
X94693866Y-9050500D01*
X94693867Y-9050499D01*
X94896820Y-9010130D01*
X94918946Y-9000964D01*
X94988415Y-8993495D01*
X95050894Y-9024769D01*
X95086548Y-9084857D01*
X95090400Y-9115525D01*
X95090400Y-9550000D01*
X95874714Y-9550000D01*
X95870320Y-9554394D01*
X95817659Y-9645606D01*
X95790400Y-9747339D01*
X95790400Y-9852661D01*
X95817659Y-9954394D01*
X95870320Y-10045606D01*
X95874714Y-10050000D01*
X95090400Y-10050000D01*
X95090400Y-10947844D01*
X95096801Y-11007372D01*
X95096803Y-11007379D01*
X95147045Y-11142086D01*
X95147049Y-11142093D01*
X95233209Y-11257187D01*
X95233212Y-11257190D01*
X95348306Y-11343350D01*
X95348313Y-11343354D01*
X95483020Y-11393596D01*
X95483027Y-11393598D01*
X95542555Y-11399999D01*
X95542572Y-11400000D01*
X95940400Y-11400000D01*
X95940400Y-10115686D01*
X95944794Y-10120080D01*
X96036006Y-10172741D01*
X96137739Y-10200000D01*
X96243061Y-10200000D01*
X96344794Y-10172741D01*
X96436006Y-10120080D01*
X96440400Y-10115686D01*
X96440400Y-11400000D01*
X96838228Y-11400000D01*
X96838244Y-11399999D01*
X96897772Y-11393598D01*
X96897779Y-11393596D01*
X97032486Y-11343354D01*
X97032493Y-11343350D01*
X97147587Y-11257190D01*
X97147590Y-11257187D01*
X97233750Y-11142093D01*
X97233754Y-11142086D01*
X97283996Y-11007379D01*
X97283998Y-11007372D01*
X97290399Y-10947844D01*
X97290400Y-10947827D01*
X97290400Y-10050000D01*
X96506086Y-10050000D01*
X96510480Y-10045606D01*
X96563141Y-9954394D01*
X96590400Y-9852661D01*
X96590400Y-9747339D01*
X96563141Y-9645606D01*
X96510480Y-9554394D01*
X96506086Y-9550000D01*
X97290400Y-9550000D01*
X97290400Y-8652172D01*
X97290399Y-8652155D01*
X97283998Y-8592627D01*
X97283996Y-8592620D01*
X97233754Y-8457913D01*
X97233750Y-8457906D01*
X97147590Y-8342812D01*
X97147587Y-8342809D01*
X97032493Y-8256649D01*
X97032486Y-8256645D01*
X96897779Y-8206403D01*
X96897772Y-8206401D01*
X96838244Y-8200000D01*
X96440400Y-8200000D01*
X96440400Y-9484314D01*
X96436006Y-9479920D01*
X96344794Y-9427259D01*
X96243061Y-9400000D01*
X96137739Y-9400000D01*
X96036006Y-9427259D01*
X95944794Y-9479920D01*
X95940400Y-9484314D01*
X95940400Y-8200000D01*
X95764900Y-8200000D01*
X95756214Y-8197449D01*
X95747253Y-8198738D01*
X95723212Y-8187759D01*
X95697861Y-8180315D01*
X95691933Y-8173474D01*
X95683697Y-8169713D01*
X95669407Y-8147478D01*
X95652106Y-8127511D01*
X95649818Y-8116996D01*
X95645923Y-8110935D01*
X95640900Y-8076000D01*
X95640900Y-7924000D01*
X95660585Y-7856961D01*
X95713389Y-7811206D01*
X95764900Y-7800000D01*
X95940400Y-7800000D01*
X95940400Y-6515686D01*
X95944794Y-6520080D01*
X96036006Y-6572741D01*
X96137739Y-6600000D01*
X96243061Y-6600000D01*
X96344794Y-6572741D01*
X96436006Y-6520080D01*
X96440400Y-6515686D01*
X96440400Y-7800000D01*
X96838228Y-7800000D01*
X96838244Y-7799999D01*
X96897772Y-7793598D01*
X96897779Y-7793596D01*
X97032486Y-7743354D01*
X97032493Y-7743350D01*
X97147587Y-7657190D01*
X97147590Y-7657187D01*
X97233750Y-7542093D01*
X97233754Y-7542086D01*
X97283996Y-7407379D01*
X97283998Y-7407372D01*
X97290399Y-7347844D01*
X97290400Y-7347827D01*
X97290400Y-6450000D01*
X96506086Y-6450000D01*
X96510480Y-6445606D01*
X96563141Y-6354394D01*
X96590400Y-6252661D01*
X96590400Y-6147339D01*
X96563141Y-6045606D01*
X96510480Y-5954394D01*
X96506086Y-5950000D01*
X97290400Y-5950000D01*
X97290400Y-5052172D01*
X97290399Y-5052155D01*
X97283998Y-4992627D01*
X97283996Y-4992620D01*
X97233754Y-4857913D01*
X97233750Y-4857906D01*
X97147590Y-4742812D01*
X97147587Y-4742809D01*
X97032493Y-4656649D01*
X97032486Y-4656645D01*
X96897779Y-4606403D01*
X96897772Y-4606401D01*
X96838244Y-4600000D01*
X96440400Y-4600000D01*
X96440400Y-5884314D01*
X96436006Y-5879920D01*
X96344794Y-5827259D01*
X96243061Y-5800000D01*
X96137739Y-5800000D01*
X96036006Y-5827259D01*
X95944794Y-5879920D01*
X95940400Y-5884314D01*
X95940400Y-4600000D01*
X95542555Y-4600000D01*
X95483027Y-4606401D01*
X95483020Y-4606403D01*
X95348313Y-4656645D01*
X95348306Y-4656649D01*
X95233212Y-4742809D01*
X95233209Y-4742812D01*
X95147049Y-4857906D01*
X95147045Y-4857913D01*
X95096803Y-4992620D01*
X95096801Y-4992627D01*
X95090400Y-5052155D01*
X95090400Y-5950000D01*
X95874714Y-5950000D01*
X95870320Y-5954394D01*
X95817659Y-6045606D01*
X95790400Y-6147339D01*
X95790400Y-6252661D01*
X95817659Y-6354394D01*
X95870320Y-6445606D01*
X95874714Y-6450000D01*
X95090400Y-6450000D01*
X95090400Y-6884474D01*
X95070715Y-6951513D01*
X95017911Y-6997268D01*
X94948753Y-7007212D01*
X94918949Y-6999036D01*
X94912054Y-6996180D01*
X94896820Y-6989870D01*
X94896816Y-6989869D01*
X94896812Y-6989868D01*
X94693869Y-6949500D01*
X94693865Y-6949500D01*
X94486935Y-6949500D01*
X94486930Y-6949500D01*
X94283987Y-6989868D01*
X94283980Y-6989870D01*
X94261851Y-6999036D01*
X94192382Y-7006503D01*
X94129903Y-6975228D01*
X94094251Y-6915138D01*
X94090400Y-6884474D01*
X94090400Y-6450000D01*
X93306086Y-6450000D01*
X93310480Y-6445606D01*
X93363141Y-6354394D01*
X93390400Y-6252661D01*
X93390400Y-6147339D01*
X93363141Y-6045606D01*
X93310480Y-5954394D01*
X93306086Y-5950000D01*
X94090400Y-5950000D01*
X94090400Y-5052172D01*
X94090399Y-5052155D01*
X94083998Y-4992627D01*
X94083996Y-4992620D01*
X94033754Y-4857913D01*
X94033750Y-4857906D01*
X93947590Y-4742812D01*
X93947587Y-4742809D01*
X93832493Y-4656649D01*
X93832486Y-4656645D01*
X93697779Y-4606403D01*
X93697772Y-4606401D01*
X93638244Y-4600000D01*
X93240400Y-4600000D01*
X93240400Y-5884314D01*
X93236006Y-5879920D01*
X93144794Y-5827259D01*
X93043061Y-5800000D01*
X92937739Y-5800000D01*
X92836006Y-5827259D01*
X92744794Y-5879920D01*
X92740400Y-5884314D01*
X92740400Y-4600000D01*
X92342555Y-4600000D01*
X92283027Y-4606401D01*
X92283020Y-4606403D01*
X92148313Y-4656645D01*
X92148306Y-4656649D01*
X92033212Y-4742809D01*
X92033209Y-4742812D01*
X91947049Y-4857906D01*
X91947045Y-4857913D01*
X91896803Y-4992620D01*
X91896801Y-4992627D01*
X91890400Y-5052155D01*
X88590380Y-5052155D01*
X88590380Y-2124000D01*
X88610065Y-2056961D01*
X88662869Y-2011206D01*
X88714380Y-2000000D01*
X100466380Y-2000000D01*
X100533419Y-2019685D01*
G37*
%TD.AperFunction*%
%TD*%
%TA.AperFunction,Conductor*%
%TO.N,GND*%
G36*
X141354496Y-2019685D02*
G01*
X141400251Y-2072489D01*
X141411457Y-2124000D01*
X141411457Y-13876000D01*
X141391772Y-13943039D01*
X141338968Y-13988794D01*
X141287457Y-14000000D01*
X129535457Y-14000000D01*
X129468418Y-13980315D01*
X129422663Y-13927511D01*
X129411457Y-13876000D01*
X129411457Y-5052155D01*
X132711500Y-5052155D01*
X132711500Y-5950000D01*
X133495814Y-5950000D01*
X133491420Y-5954394D01*
X133438759Y-6045606D01*
X133411500Y-6147339D01*
X133411500Y-6252661D01*
X133438759Y-6354394D01*
X133491420Y-6445606D01*
X133495814Y-6450000D01*
X132711500Y-6450000D01*
X132711500Y-7347844D01*
X132717901Y-7407372D01*
X132717903Y-7407379D01*
X132768145Y-7542086D01*
X132768149Y-7542093D01*
X132854309Y-7657187D01*
X132854312Y-7657190D01*
X132969406Y-7743350D01*
X132969413Y-7743354D01*
X133104120Y-7793596D01*
X133104127Y-7793598D01*
X133163655Y-7799999D01*
X133163672Y-7800000D01*
X133561500Y-7800000D01*
X133561500Y-6515686D01*
X133565894Y-6520080D01*
X133657106Y-6572741D01*
X133758839Y-6600000D01*
X133864161Y-6600000D01*
X133965894Y-6572741D01*
X134057106Y-6520080D01*
X134061500Y-6515686D01*
X134061500Y-7800000D01*
X134237000Y-7800000D01*
X134245685Y-7802550D01*
X134254647Y-7801262D01*
X134278687Y-7812240D01*
X134304039Y-7819685D01*
X134309966Y-7826525D01*
X134318203Y-7830287D01*
X134332492Y-7852521D01*
X134349794Y-7872489D01*
X134352081Y-7883003D01*
X134355977Y-7889065D01*
X134361000Y-7924000D01*
X134361000Y-8076000D01*
X134341315Y-8143039D01*
X134288511Y-8188794D01*
X134237000Y-8200000D01*
X134061500Y-8200000D01*
X134061500Y-9484314D01*
X134057106Y-9479920D01*
X133965894Y-9427259D01*
X133864161Y-9400000D01*
X133758839Y-9400000D01*
X133657106Y-9427259D01*
X133565894Y-9479920D01*
X133561500Y-9484314D01*
X133561500Y-8200000D01*
X133163655Y-8200000D01*
X133104127Y-8206401D01*
X133104120Y-8206403D01*
X132969413Y-8256645D01*
X132969406Y-8256649D01*
X132854312Y-8342809D01*
X132854309Y-8342812D01*
X132768149Y-8457906D01*
X132768145Y-8457913D01*
X132717903Y-8592620D01*
X132717901Y-8592627D01*
X132711500Y-8652155D01*
X132711500Y-9550000D01*
X133495814Y-9550000D01*
X133491420Y-9554394D01*
X133438759Y-9645606D01*
X133411500Y-9747339D01*
X133411500Y-9852661D01*
X133438759Y-9954394D01*
X133491420Y-10045606D01*
X133495814Y-10050000D01*
X132711500Y-10050000D01*
X132711500Y-10947844D01*
X132717901Y-11007372D01*
X132717903Y-11007379D01*
X132768145Y-11142086D01*
X132768149Y-11142093D01*
X132854309Y-11257187D01*
X132854312Y-11257190D01*
X132969406Y-11343350D01*
X132969413Y-11343354D01*
X133104120Y-11393596D01*
X133104127Y-11393598D01*
X133163655Y-11399999D01*
X133163672Y-11400000D01*
X133561500Y-11400000D01*
X133561500Y-10115686D01*
X133565894Y-10120080D01*
X133657106Y-10172741D01*
X133758839Y-10200000D01*
X133864161Y-10200000D01*
X133965894Y-10172741D01*
X134057106Y-10120080D01*
X134061500Y-10115686D01*
X134061500Y-11400000D01*
X134459328Y-11400000D01*
X134459344Y-11399999D01*
X134518872Y-11393598D01*
X134518879Y-11393596D01*
X134653586Y-11343354D01*
X134653593Y-11343350D01*
X134768687Y-11257190D01*
X134768690Y-11257187D01*
X134854850Y-11142093D01*
X134854854Y-11142086D01*
X134905096Y-11007379D01*
X134905098Y-11007372D01*
X134911499Y-10947844D01*
X134911500Y-10947827D01*
X134911500Y-10050000D01*
X134127186Y-10050000D01*
X134131580Y-10045606D01*
X134184241Y-9954394D01*
X134211500Y-9852661D01*
X134211500Y-9747339D01*
X134184241Y-9645606D01*
X134131580Y-9554394D01*
X134127186Y-9550000D01*
X134911500Y-9550000D01*
X134911500Y-9115525D01*
X134931185Y-9048486D01*
X134983989Y-9002731D01*
X135053147Y-8992787D01*
X135082951Y-9000964D01*
X135105080Y-9010130D01*
X135297910Y-9048486D01*
X135308030Y-9050499D01*
X135308034Y-9050500D01*
X135308035Y-9050500D01*
X135514966Y-9050500D01*
X135514967Y-9050499D01*
X135717920Y-9010130D01*
X135740046Y-9000964D01*
X135809515Y-8993495D01*
X135871994Y-9024769D01*
X135907648Y-9084857D01*
X135911500Y-9115525D01*
X135911500Y-9550000D01*
X136695814Y-9550000D01*
X136691420Y-9554394D01*
X136638759Y-9645606D01*
X136611500Y-9747339D01*
X136611500Y-9852661D01*
X136638759Y-9954394D01*
X136691420Y-10045606D01*
X136695814Y-10050000D01*
X135911500Y-10050000D01*
X135911500Y-10947844D01*
X135917901Y-11007372D01*
X135917903Y-11007379D01*
X135968145Y-11142086D01*
X135968149Y-11142093D01*
X136054309Y-11257187D01*
X136054312Y-11257190D01*
X136169406Y-11343350D01*
X136169413Y-11343354D01*
X136304120Y-11393596D01*
X136304127Y-11393598D01*
X136363655Y-11399999D01*
X136363672Y-11400000D01*
X136761500Y-11400000D01*
X136761500Y-10115686D01*
X136765894Y-10120080D01*
X136857106Y-10172741D01*
X136958839Y-10200000D01*
X137064161Y-10200000D01*
X137165894Y-10172741D01*
X137257106Y-10120080D01*
X137261500Y-10115686D01*
X137261500Y-11400000D01*
X137659328Y-11400000D01*
X137659344Y-11399999D01*
X137718872Y-11393598D01*
X137718879Y-11393596D01*
X137853586Y-11343354D01*
X137853593Y-11343350D01*
X137968687Y-11257190D01*
X137968690Y-11257187D01*
X138054850Y-11142093D01*
X138054854Y-11142086D01*
X138105096Y-11007379D01*
X138105098Y-11007372D01*
X138111499Y-10947844D01*
X138111500Y-10947827D01*
X138111500Y-10050000D01*
X137327186Y-10050000D01*
X137331580Y-10045606D01*
X137384241Y-9954394D01*
X137411500Y-9852661D01*
X137411500Y-9747339D01*
X137384241Y-9645606D01*
X137331580Y-9554394D01*
X137327186Y-9550000D01*
X138111500Y-9550000D01*
X138111500Y-8652172D01*
X138111499Y-8652155D01*
X138105098Y-8592627D01*
X138105096Y-8592620D01*
X138054854Y-8457913D01*
X138054850Y-8457906D01*
X137968690Y-8342812D01*
X137968687Y-8342809D01*
X137853593Y-8256649D01*
X137853586Y-8256645D01*
X137718879Y-8206403D01*
X137718872Y-8206401D01*
X137659344Y-8200000D01*
X137261500Y-8200000D01*
X137261500Y-9484314D01*
X137257106Y-9479920D01*
X137165894Y-9427259D01*
X137064161Y-9400000D01*
X136958839Y-9400000D01*
X136857106Y-9427259D01*
X136765894Y-9479920D01*
X136761500Y-9484314D01*
X136761500Y-8200000D01*
X136586000Y-8200000D01*
X136577314Y-8197449D01*
X136568353Y-8198738D01*
X136544312Y-8187759D01*
X136518961Y-8180315D01*
X136513033Y-8173474D01*
X136504797Y-8169713D01*
X136490507Y-8147478D01*
X136473206Y-8127511D01*
X136470918Y-8116996D01*
X136467023Y-8110935D01*
X136462000Y-8076000D01*
X136462000Y-7924000D01*
X136481685Y-7856961D01*
X136534489Y-7811206D01*
X136586000Y-7800000D01*
X136761500Y-7800000D01*
X136761500Y-6515686D01*
X136765894Y-6520080D01*
X136857106Y-6572741D01*
X136958839Y-6600000D01*
X137064161Y-6600000D01*
X137165894Y-6572741D01*
X137257106Y-6520080D01*
X137261500Y-6515686D01*
X137261500Y-7800000D01*
X137659328Y-7800000D01*
X137659344Y-7799999D01*
X137718872Y-7793598D01*
X137718879Y-7793596D01*
X137853586Y-7743354D01*
X137853593Y-7743350D01*
X137968687Y-7657190D01*
X137968690Y-7657187D01*
X138054850Y-7542093D01*
X138054854Y-7542086D01*
X138105096Y-7407379D01*
X138105098Y-7407372D01*
X138111499Y-7347844D01*
X138111500Y-7347827D01*
X138111500Y-6450000D01*
X137327186Y-6450000D01*
X137331580Y-6445606D01*
X137384241Y-6354394D01*
X137411500Y-6252661D01*
X137411500Y-6147339D01*
X137384241Y-6045606D01*
X137331580Y-5954394D01*
X137327186Y-5950000D01*
X138111500Y-5950000D01*
X138111500Y-5052172D01*
X138111499Y-5052155D01*
X138105098Y-4992627D01*
X138105096Y-4992620D01*
X138054854Y-4857913D01*
X138054850Y-4857906D01*
X137968690Y-4742812D01*
X137968687Y-4742809D01*
X137853593Y-4656649D01*
X137853586Y-4656645D01*
X137718879Y-4606403D01*
X137718872Y-4606401D01*
X137659344Y-4600000D01*
X137261500Y-4600000D01*
X137261500Y-5884314D01*
X137257106Y-5879920D01*
X137165894Y-5827259D01*
X137064161Y-5800000D01*
X136958839Y-5800000D01*
X136857106Y-5827259D01*
X136765894Y-5879920D01*
X136761500Y-5884314D01*
X136761500Y-4600000D01*
X136363655Y-4600000D01*
X136304127Y-4606401D01*
X136304120Y-4606403D01*
X136169413Y-4656645D01*
X136169406Y-4656649D01*
X136054312Y-4742809D01*
X136054309Y-4742812D01*
X135968149Y-4857906D01*
X135968145Y-4857913D01*
X135917903Y-4992620D01*
X135917901Y-4992627D01*
X135911500Y-5052155D01*
X135911500Y-5950000D01*
X136695814Y-5950000D01*
X136691420Y-5954394D01*
X136638759Y-6045606D01*
X136611500Y-6147339D01*
X136611500Y-6252661D01*
X136638759Y-6354394D01*
X136691420Y-6445606D01*
X136695814Y-6450000D01*
X135911500Y-6450000D01*
X135911500Y-6884474D01*
X135891815Y-6951513D01*
X135839011Y-6997268D01*
X135769853Y-7007212D01*
X135740049Y-6999036D01*
X135733154Y-6996180D01*
X135717920Y-6989870D01*
X135717916Y-6989869D01*
X135717912Y-6989868D01*
X135514969Y-6949500D01*
X135514965Y-6949500D01*
X135308035Y-6949500D01*
X135308030Y-6949500D01*
X135105087Y-6989868D01*
X135105080Y-6989870D01*
X135082951Y-6999036D01*
X135013482Y-7006503D01*
X134951003Y-6975228D01*
X134915351Y-6915138D01*
X134911500Y-6884474D01*
X134911500Y-6450000D01*
X134127186Y-6450000D01*
X134131580Y-6445606D01*
X134184241Y-6354394D01*
X134211500Y-6252661D01*
X134211500Y-6147339D01*
X134184241Y-6045606D01*
X134131580Y-5954394D01*
X134127186Y-5950000D01*
X134911500Y-5950000D01*
X134911500Y-5052172D01*
X134911499Y-5052155D01*
X134905098Y-4992627D01*
X134905096Y-4992620D01*
X134854854Y-4857913D01*
X134854850Y-4857906D01*
X134768690Y-4742812D01*
X134768687Y-4742809D01*
X134653593Y-4656649D01*
X134653586Y-4656645D01*
X134518879Y-4606403D01*
X134518872Y-4606401D01*
X134459344Y-4600000D01*
X134061500Y-4600000D01*
X134061500Y-5884314D01*
X134057106Y-5879920D01*
X133965894Y-5827259D01*
X133864161Y-5800000D01*
X133758839Y-5800000D01*
X133657106Y-5827259D01*
X133565894Y-5879920D01*
X133561500Y-5884314D01*
X133561500Y-4600000D01*
X133163655Y-4600000D01*
X133104127Y-4606401D01*
X133104120Y-4606403D01*
X132969413Y-4656645D01*
X132969406Y-4656649D01*
X132854312Y-4742809D01*
X132854309Y-4742812D01*
X132768149Y-4857906D01*
X132768145Y-4857913D01*
X132717903Y-4992620D01*
X132717901Y-4992627D01*
X132711500Y-5052155D01*
X129411457Y-5052155D01*
X129411457Y-2124000D01*
X129431142Y-2056961D01*
X129483946Y-2011206D01*
X129535457Y-2000000D01*
X141287457Y-2000000D01*
X141354496Y-2019685D01*
G37*
%TD.AperFunction*%
%TD*%
%TA.AperFunction,Conductor*%
%TO.N,GND*%
G36*
X54359569Y-106019685D02*
G01*
X54405324Y-106072489D01*
X54416530Y-106124000D01*
X54416530Y-117876000D01*
X54396845Y-117943039D01*
X54344041Y-117988794D01*
X54292530Y-118000000D01*
X42540530Y-118000000D01*
X42473491Y-117980315D01*
X42427736Y-117927511D01*
X42416530Y-117876000D01*
X42416530Y-109052155D01*
X45716500Y-109052155D01*
X45716500Y-109950000D01*
X46500814Y-109950000D01*
X46496420Y-109954394D01*
X46443759Y-110045606D01*
X46416500Y-110147339D01*
X46416500Y-110252661D01*
X46443759Y-110354394D01*
X46496420Y-110445606D01*
X46500814Y-110450000D01*
X45716500Y-110450000D01*
X45716500Y-111347844D01*
X45722901Y-111407372D01*
X45722903Y-111407379D01*
X45773145Y-111542086D01*
X45773149Y-111542093D01*
X45859309Y-111657187D01*
X45859312Y-111657190D01*
X45974406Y-111743350D01*
X45974413Y-111743354D01*
X46109120Y-111793596D01*
X46109127Y-111793598D01*
X46168655Y-111799999D01*
X46168672Y-111800000D01*
X46566500Y-111800000D01*
X46566500Y-110515686D01*
X46570894Y-110520080D01*
X46662106Y-110572741D01*
X46763839Y-110600000D01*
X46869161Y-110600000D01*
X46970894Y-110572741D01*
X47062106Y-110520080D01*
X47066500Y-110515686D01*
X47066500Y-111800000D01*
X47242000Y-111800000D01*
X47250685Y-111802550D01*
X47259647Y-111801262D01*
X47283687Y-111812240D01*
X47309039Y-111819685D01*
X47314966Y-111826525D01*
X47323203Y-111830287D01*
X47337492Y-111852521D01*
X47354794Y-111872489D01*
X47357081Y-111883003D01*
X47360977Y-111889065D01*
X47366000Y-111924000D01*
X47366000Y-112076000D01*
X47346315Y-112143039D01*
X47293511Y-112188794D01*
X47242000Y-112200000D01*
X47066500Y-112200000D01*
X47066500Y-113484314D01*
X47062106Y-113479920D01*
X46970894Y-113427259D01*
X46869161Y-113400000D01*
X46763839Y-113400000D01*
X46662106Y-113427259D01*
X46570894Y-113479920D01*
X46566500Y-113484314D01*
X46566500Y-112200000D01*
X46168655Y-112200000D01*
X46109127Y-112206401D01*
X46109120Y-112206403D01*
X45974413Y-112256645D01*
X45974406Y-112256649D01*
X45859312Y-112342809D01*
X45859309Y-112342812D01*
X45773149Y-112457906D01*
X45773145Y-112457913D01*
X45722903Y-112592620D01*
X45722901Y-112592627D01*
X45716500Y-112652155D01*
X45716500Y-113550000D01*
X46500814Y-113550000D01*
X46496420Y-113554394D01*
X46443759Y-113645606D01*
X46416500Y-113747339D01*
X46416500Y-113852661D01*
X46443759Y-113954394D01*
X46496420Y-114045606D01*
X46500814Y-114050000D01*
X45716500Y-114050000D01*
X45716500Y-114947844D01*
X45722901Y-115007372D01*
X45722903Y-115007379D01*
X45773145Y-115142086D01*
X45773149Y-115142093D01*
X45859309Y-115257187D01*
X45859312Y-115257190D01*
X45974406Y-115343350D01*
X45974413Y-115343354D01*
X46109120Y-115393596D01*
X46109127Y-115393598D01*
X46168655Y-115399999D01*
X46168672Y-115400000D01*
X46566500Y-115400000D01*
X46566500Y-114115686D01*
X46570894Y-114120080D01*
X46662106Y-114172741D01*
X46763839Y-114200000D01*
X46869161Y-114200000D01*
X46970894Y-114172741D01*
X47062106Y-114120080D01*
X47066500Y-114115686D01*
X47066500Y-115400000D01*
X47464328Y-115400000D01*
X47464344Y-115399999D01*
X47523872Y-115393598D01*
X47523879Y-115393596D01*
X47658586Y-115343354D01*
X47658593Y-115343350D01*
X47773687Y-115257190D01*
X47773690Y-115257187D01*
X47859850Y-115142093D01*
X47859854Y-115142086D01*
X47910096Y-115007379D01*
X47910098Y-115007372D01*
X47916499Y-114947844D01*
X47916500Y-114947827D01*
X47916500Y-114050000D01*
X47132186Y-114050000D01*
X47136580Y-114045606D01*
X47189241Y-113954394D01*
X47216500Y-113852661D01*
X47216500Y-113747339D01*
X47189241Y-113645606D01*
X47136580Y-113554394D01*
X47132186Y-113550000D01*
X47916500Y-113550000D01*
X47916500Y-113115525D01*
X47936185Y-113048486D01*
X47988989Y-113002731D01*
X48058147Y-112992787D01*
X48087951Y-113000964D01*
X48110080Y-113010130D01*
X48302910Y-113048486D01*
X48313030Y-113050499D01*
X48313034Y-113050500D01*
X48313035Y-113050500D01*
X48519966Y-113050500D01*
X48519967Y-113050499D01*
X48722920Y-113010130D01*
X48745046Y-113000964D01*
X48814515Y-112993495D01*
X48876994Y-113024769D01*
X48912648Y-113084857D01*
X48916500Y-113115525D01*
X48916500Y-113550000D01*
X49700814Y-113550000D01*
X49696420Y-113554394D01*
X49643759Y-113645606D01*
X49616500Y-113747339D01*
X49616500Y-113852661D01*
X49643759Y-113954394D01*
X49696420Y-114045606D01*
X49700814Y-114050000D01*
X48916500Y-114050000D01*
X48916500Y-114947844D01*
X48922901Y-115007372D01*
X48922903Y-115007379D01*
X48973145Y-115142086D01*
X48973149Y-115142093D01*
X49059309Y-115257187D01*
X49059312Y-115257190D01*
X49174406Y-115343350D01*
X49174413Y-115343354D01*
X49309120Y-115393596D01*
X49309127Y-115393598D01*
X49368655Y-115399999D01*
X49368672Y-115400000D01*
X49766500Y-115400000D01*
X49766500Y-114115686D01*
X49770894Y-114120080D01*
X49862106Y-114172741D01*
X49963839Y-114200000D01*
X50069161Y-114200000D01*
X50170894Y-114172741D01*
X50262106Y-114120080D01*
X50266500Y-114115686D01*
X50266500Y-115400000D01*
X50664328Y-115400000D01*
X50664344Y-115399999D01*
X50723872Y-115393598D01*
X50723879Y-115393596D01*
X50858586Y-115343354D01*
X50858593Y-115343350D01*
X50973687Y-115257190D01*
X50973690Y-115257187D01*
X51059850Y-115142093D01*
X51059854Y-115142086D01*
X51110096Y-115007379D01*
X51110098Y-115007372D01*
X51116499Y-114947844D01*
X51116500Y-114947827D01*
X51116500Y-114050000D01*
X50332186Y-114050000D01*
X50336580Y-114045606D01*
X50389241Y-113954394D01*
X50416500Y-113852661D01*
X50416500Y-113747339D01*
X50389241Y-113645606D01*
X50336580Y-113554394D01*
X50332186Y-113550000D01*
X51116500Y-113550000D01*
X51116500Y-112652172D01*
X51116499Y-112652155D01*
X51110098Y-112592627D01*
X51110096Y-112592620D01*
X51059854Y-112457913D01*
X51059850Y-112457906D01*
X50973690Y-112342812D01*
X50973687Y-112342809D01*
X50858593Y-112256649D01*
X50858586Y-112256645D01*
X50723879Y-112206403D01*
X50723872Y-112206401D01*
X50664344Y-112200000D01*
X50266500Y-112200000D01*
X50266500Y-113484314D01*
X50262106Y-113479920D01*
X50170894Y-113427259D01*
X50069161Y-113400000D01*
X49963839Y-113400000D01*
X49862106Y-113427259D01*
X49770894Y-113479920D01*
X49766500Y-113484314D01*
X49766500Y-112200000D01*
X49591000Y-112200000D01*
X49582314Y-112197449D01*
X49573353Y-112198738D01*
X49549312Y-112187759D01*
X49523961Y-112180315D01*
X49518033Y-112173474D01*
X49509797Y-112169713D01*
X49495507Y-112147478D01*
X49478206Y-112127511D01*
X49475918Y-112116996D01*
X49472023Y-112110935D01*
X49467000Y-112076000D01*
X49467000Y-111924000D01*
X49486685Y-111856961D01*
X49539489Y-111811206D01*
X49591000Y-111800000D01*
X49766500Y-111800000D01*
X49766500Y-110515686D01*
X49770894Y-110520080D01*
X49862106Y-110572741D01*
X49963839Y-110600000D01*
X50069161Y-110600000D01*
X50170894Y-110572741D01*
X50262106Y-110520080D01*
X50266500Y-110515686D01*
X50266500Y-111800000D01*
X50664328Y-111800000D01*
X50664344Y-111799999D01*
X50723872Y-111793598D01*
X50723879Y-111793596D01*
X50858586Y-111743354D01*
X50858593Y-111743350D01*
X50973687Y-111657190D01*
X50973690Y-111657187D01*
X51059850Y-111542093D01*
X51059854Y-111542086D01*
X51110096Y-111407379D01*
X51110098Y-111407372D01*
X51116499Y-111347844D01*
X51116500Y-111347827D01*
X51116500Y-110450000D01*
X50332186Y-110450000D01*
X50336580Y-110445606D01*
X50389241Y-110354394D01*
X50416500Y-110252661D01*
X50416500Y-110147339D01*
X50389241Y-110045606D01*
X50336580Y-109954394D01*
X50332186Y-109950000D01*
X51116500Y-109950000D01*
X51116500Y-109052172D01*
X51116499Y-109052155D01*
X51110098Y-108992627D01*
X51110096Y-108992620D01*
X51059854Y-108857913D01*
X51059850Y-108857906D01*
X50973690Y-108742812D01*
X50973687Y-108742809D01*
X50858593Y-108656649D01*
X50858586Y-108656645D01*
X50723879Y-108606403D01*
X50723872Y-108606401D01*
X50664344Y-108600000D01*
X50266500Y-108600000D01*
X50266500Y-109884314D01*
X50262106Y-109879920D01*
X50170894Y-109827259D01*
X50069161Y-109800000D01*
X49963839Y-109800000D01*
X49862106Y-109827259D01*
X49770894Y-109879920D01*
X49766500Y-109884314D01*
X49766500Y-108600000D01*
X49368655Y-108600000D01*
X49309127Y-108606401D01*
X49309120Y-108606403D01*
X49174413Y-108656645D01*
X49174406Y-108656649D01*
X49059312Y-108742809D01*
X49059309Y-108742812D01*
X48973149Y-108857906D01*
X48973145Y-108857913D01*
X48922903Y-108992620D01*
X48922901Y-108992627D01*
X48916500Y-109052155D01*
X48916500Y-109950000D01*
X49700814Y-109950000D01*
X49696420Y-109954394D01*
X49643759Y-110045606D01*
X49616500Y-110147339D01*
X49616500Y-110252661D01*
X49643759Y-110354394D01*
X49696420Y-110445606D01*
X49700814Y-110450000D01*
X48916500Y-110450000D01*
X48916500Y-110884474D01*
X48896815Y-110951513D01*
X48844011Y-110997268D01*
X48774853Y-111007212D01*
X48745049Y-110999036D01*
X48738154Y-110996180D01*
X48722920Y-110989870D01*
X48722916Y-110989869D01*
X48722912Y-110989868D01*
X48519969Y-110949500D01*
X48519965Y-110949500D01*
X48313035Y-110949500D01*
X48313030Y-110949500D01*
X48110087Y-110989868D01*
X48110080Y-110989870D01*
X48087951Y-110999036D01*
X48018482Y-111006503D01*
X47956003Y-110975228D01*
X47920351Y-110915138D01*
X47916500Y-110884474D01*
X47916500Y-110450000D01*
X47132186Y-110450000D01*
X47136580Y-110445606D01*
X47189241Y-110354394D01*
X47216500Y-110252661D01*
X47216500Y-110147339D01*
X47189241Y-110045606D01*
X47136580Y-109954394D01*
X47132186Y-109950000D01*
X47916500Y-109950000D01*
X47916500Y-109052172D01*
X47916499Y-109052155D01*
X47910098Y-108992627D01*
X47910096Y-108992620D01*
X47859854Y-108857913D01*
X47859850Y-108857906D01*
X47773690Y-108742812D01*
X47773687Y-108742809D01*
X47658593Y-108656649D01*
X47658586Y-108656645D01*
X47523879Y-108606403D01*
X47523872Y-108606401D01*
X47464344Y-108600000D01*
X47066500Y-108600000D01*
X47066500Y-109884314D01*
X47062106Y-109879920D01*
X46970894Y-109827259D01*
X46869161Y-109800000D01*
X46763839Y-109800000D01*
X46662106Y-109827259D01*
X46570894Y-109879920D01*
X46566500Y-109884314D01*
X46566500Y-108600000D01*
X46168655Y-108600000D01*
X46109127Y-108606401D01*
X46109120Y-108606403D01*
X45974413Y-108656645D01*
X45974406Y-108656649D01*
X45859312Y-108742809D01*
X45859309Y-108742812D01*
X45773149Y-108857906D01*
X45773145Y-108857913D01*
X45722903Y-108992620D01*
X45722901Y-108992627D01*
X45716500Y-109052155D01*
X42416530Y-109052155D01*
X42416530Y-106124000D01*
X42436215Y-106056961D01*
X42489019Y-106011206D01*
X42540530Y-106000000D01*
X54292530Y-106000000D01*
X54359569Y-106019685D01*
G37*
%TD.AperFunction*%
%TD*%
%TA.AperFunction,Conductor*%
%TO.N,GND*%
G36*
X142991176Y-106019685D02*
G01*
X143036931Y-106072489D01*
X143048137Y-106124000D01*
X143048137Y-117876000D01*
X143028452Y-117943039D01*
X142975648Y-117988794D01*
X142924137Y-118000000D01*
X131172137Y-118000000D01*
X131105098Y-117980315D01*
X131059343Y-117927511D01*
X131048137Y-117876000D01*
X131048137Y-109052155D01*
X134348100Y-109052155D01*
X134348100Y-109950000D01*
X135132414Y-109950000D01*
X135128020Y-109954394D01*
X135075359Y-110045606D01*
X135048100Y-110147339D01*
X135048100Y-110252661D01*
X135075359Y-110354394D01*
X135128020Y-110445606D01*
X135132414Y-110450000D01*
X134348100Y-110450000D01*
X134348100Y-111347844D01*
X134354501Y-111407372D01*
X134354503Y-111407379D01*
X134404745Y-111542086D01*
X134404749Y-111542093D01*
X134490909Y-111657187D01*
X134490912Y-111657190D01*
X134606006Y-111743350D01*
X134606013Y-111743354D01*
X134740720Y-111793596D01*
X134740727Y-111793598D01*
X134800255Y-111799999D01*
X134800272Y-111800000D01*
X135198100Y-111800000D01*
X135198100Y-110515686D01*
X135202494Y-110520080D01*
X135293706Y-110572741D01*
X135395439Y-110600000D01*
X135500761Y-110600000D01*
X135602494Y-110572741D01*
X135693706Y-110520080D01*
X135698100Y-110515686D01*
X135698100Y-111800000D01*
X135873600Y-111800000D01*
X135882285Y-111802550D01*
X135891247Y-111801262D01*
X135915287Y-111812240D01*
X135940639Y-111819685D01*
X135946566Y-111826525D01*
X135954803Y-111830287D01*
X135969092Y-111852521D01*
X135986394Y-111872489D01*
X135988681Y-111883003D01*
X135992577Y-111889065D01*
X135997600Y-111924000D01*
X135997600Y-112076000D01*
X135977915Y-112143039D01*
X135925111Y-112188794D01*
X135873600Y-112200000D01*
X135698100Y-112200000D01*
X135698100Y-113484314D01*
X135693706Y-113479920D01*
X135602494Y-113427259D01*
X135500761Y-113400000D01*
X135395439Y-113400000D01*
X135293706Y-113427259D01*
X135202494Y-113479920D01*
X135198100Y-113484314D01*
X135198100Y-112200000D01*
X134800255Y-112200000D01*
X134740727Y-112206401D01*
X134740720Y-112206403D01*
X134606013Y-112256645D01*
X134606006Y-112256649D01*
X134490912Y-112342809D01*
X134490909Y-112342812D01*
X134404749Y-112457906D01*
X134404745Y-112457913D01*
X134354503Y-112592620D01*
X134354501Y-112592627D01*
X134348100Y-112652155D01*
X134348100Y-113550000D01*
X135132414Y-113550000D01*
X135128020Y-113554394D01*
X135075359Y-113645606D01*
X135048100Y-113747339D01*
X135048100Y-113852661D01*
X135075359Y-113954394D01*
X135128020Y-114045606D01*
X135132414Y-114050000D01*
X134348100Y-114050000D01*
X134348100Y-114947844D01*
X134354501Y-115007372D01*
X134354503Y-115007379D01*
X134404745Y-115142086D01*
X134404749Y-115142093D01*
X134490909Y-115257187D01*
X134490912Y-115257190D01*
X134606006Y-115343350D01*
X134606013Y-115343354D01*
X134740720Y-115393596D01*
X134740727Y-115393598D01*
X134800255Y-115399999D01*
X134800272Y-115400000D01*
X135198100Y-115400000D01*
X135198100Y-114115686D01*
X135202494Y-114120080D01*
X135293706Y-114172741D01*
X135395439Y-114200000D01*
X135500761Y-114200000D01*
X135602494Y-114172741D01*
X135693706Y-114120080D01*
X135698100Y-114115686D01*
X135698100Y-115400000D01*
X136095928Y-115400000D01*
X136095944Y-115399999D01*
X136155472Y-115393598D01*
X136155479Y-115393596D01*
X136290186Y-115343354D01*
X136290193Y-115343350D01*
X136405287Y-115257190D01*
X136405290Y-115257187D01*
X136491450Y-115142093D01*
X136491454Y-115142086D01*
X136541696Y-115007379D01*
X136541698Y-115007372D01*
X136548099Y-114947844D01*
X136548100Y-114947827D01*
X136548100Y-114050000D01*
X135763786Y-114050000D01*
X135768180Y-114045606D01*
X135820841Y-113954394D01*
X135848100Y-113852661D01*
X135848100Y-113747339D01*
X135820841Y-113645606D01*
X135768180Y-113554394D01*
X135763786Y-113550000D01*
X136548100Y-113550000D01*
X136548100Y-113115525D01*
X136567785Y-113048486D01*
X136620589Y-113002731D01*
X136689747Y-112992787D01*
X136719551Y-113000964D01*
X136741680Y-113010130D01*
X136934510Y-113048486D01*
X136944630Y-113050499D01*
X136944634Y-113050500D01*
X136944635Y-113050500D01*
X137151566Y-113050500D01*
X137151567Y-113050499D01*
X137354520Y-113010130D01*
X137376646Y-113000964D01*
X137446115Y-112993495D01*
X137508594Y-113024769D01*
X137544248Y-113084857D01*
X137548100Y-113115525D01*
X137548100Y-113550000D01*
X138332414Y-113550000D01*
X138328020Y-113554394D01*
X138275359Y-113645606D01*
X138248100Y-113747339D01*
X138248100Y-113852661D01*
X138275359Y-113954394D01*
X138328020Y-114045606D01*
X138332414Y-114050000D01*
X137548100Y-114050000D01*
X137548100Y-114947844D01*
X137554501Y-115007372D01*
X137554503Y-115007379D01*
X137604745Y-115142086D01*
X137604749Y-115142093D01*
X137690909Y-115257187D01*
X137690912Y-115257190D01*
X137806006Y-115343350D01*
X137806013Y-115343354D01*
X137940720Y-115393596D01*
X137940727Y-115393598D01*
X138000255Y-115399999D01*
X138000272Y-115400000D01*
X138398100Y-115400000D01*
X138398100Y-114115686D01*
X138402494Y-114120080D01*
X138493706Y-114172741D01*
X138595439Y-114200000D01*
X138700761Y-114200000D01*
X138802494Y-114172741D01*
X138893706Y-114120080D01*
X138898100Y-114115686D01*
X138898100Y-115400000D01*
X139295928Y-115400000D01*
X139295944Y-115399999D01*
X139355472Y-115393598D01*
X139355479Y-115393596D01*
X139490186Y-115343354D01*
X139490193Y-115343350D01*
X139605287Y-115257190D01*
X139605290Y-115257187D01*
X139691450Y-115142093D01*
X139691454Y-115142086D01*
X139741696Y-115007379D01*
X139741698Y-115007372D01*
X139748099Y-114947844D01*
X139748100Y-114947827D01*
X139748100Y-114050000D01*
X138963786Y-114050000D01*
X138968180Y-114045606D01*
X139020841Y-113954394D01*
X139048100Y-113852661D01*
X139048100Y-113747339D01*
X139020841Y-113645606D01*
X138968180Y-113554394D01*
X138963786Y-113550000D01*
X139748100Y-113550000D01*
X139748100Y-112652172D01*
X139748099Y-112652155D01*
X139741698Y-112592627D01*
X139741696Y-112592620D01*
X139691454Y-112457913D01*
X139691450Y-112457906D01*
X139605290Y-112342812D01*
X139605287Y-112342809D01*
X139490193Y-112256649D01*
X139490186Y-112256645D01*
X139355479Y-112206403D01*
X139355472Y-112206401D01*
X139295944Y-112200000D01*
X138898100Y-112200000D01*
X138898100Y-113484314D01*
X138893706Y-113479920D01*
X138802494Y-113427259D01*
X138700761Y-113400000D01*
X138595439Y-113400000D01*
X138493706Y-113427259D01*
X138402494Y-113479920D01*
X138398100Y-113484314D01*
X138398100Y-112200000D01*
X138222600Y-112200000D01*
X138213914Y-112197449D01*
X138204953Y-112198738D01*
X138180912Y-112187759D01*
X138155561Y-112180315D01*
X138149633Y-112173474D01*
X138141397Y-112169713D01*
X138127107Y-112147478D01*
X138109806Y-112127511D01*
X138107518Y-112116996D01*
X138103623Y-112110935D01*
X138098600Y-112076000D01*
X138098600Y-111924000D01*
X138118285Y-111856961D01*
X138171089Y-111811206D01*
X138222600Y-111800000D01*
X138398100Y-111800000D01*
X138398100Y-110515686D01*
X138402494Y-110520080D01*
X138493706Y-110572741D01*
X138595439Y-110600000D01*
X138700761Y-110600000D01*
X138802494Y-110572741D01*
X138893706Y-110520080D01*
X138898100Y-110515686D01*
X138898100Y-111800000D01*
X139295928Y-111800000D01*
X139295944Y-111799999D01*
X139355472Y-111793598D01*
X139355479Y-111793596D01*
X139490186Y-111743354D01*
X139490193Y-111743350D01*
X139605287Y-111657190D01*
X139605290Y-111657187D01*
X139691450Y-111542093D01*
X139691454Y-111542086D01*
X139741696Y-111407379D01*
X139741698Y-111407372D01*
X139748099Y-111347844D01*
X139748100Y-111347827D01*
X139748100Y-110450000D01*
X138963786Y-110450000D01*
X138968180Y-110445606D01*
X139020841Y-110354394D01*
X139048100Y-110252661D01*
X139048100Y-110147339D01*
X139020841Y-110045606D01*
X138968180Y-109954394D01*
X138963786Y-109950000D01*
X139748100Y-109950000D01*
X139748100Y-109052172D01*
X139748099Y-109052155D01*
X139741698Y-108992627D01*
X139741696Y-108992620D01*
X139691454Y-108857913D01*
X139691450Y-108857906D01*
X139605290Y-108742812D01*
X139605287Y-108742809D01*
X139490193Y-108656649D01*
X139490186Y-108656645D01*
X139355479Y-108606403D01*
X139355472Y-108606401D01*
X139295944Y-108600000D01*
X138898100Y-108600000D01*
X138898100Y-109884314D01*
X138893706Y-109879920D01*
X138802494Y-109827259D01*
X138700761Y-109800000D01*
X138595439Y-109800000D01*
X138493706Y-109827259D01*
X138402494Y-109879920D01*
X138398100Y-109884314D01*
X138398100Y-108600000D01*
X138000255Y-108600000D01*
X137940727Y-108606401D01*
X137940720Y-108606403D01*
X137806013Y-108656645D01*
X137806006Y-108656649D01*
X137690912Y-108742809D01*
X137690909Y-108742812D01*
X137604749Y-108857906D01*
X137604745Y-108857913D01*
X137554503Y-108992620D01*
X137554501Y-108992627D01*
X137548100Y-109052155D01*
X137548100Y-109950000D01*
X138332414Y-109950000D01*
X138328020Y-109954394D01*
X138275359Y-110045606D01*
X138248100Y-110147339D01*
X138248100Y-110252661D01*
X138275359Y-110354394D01*
X138328020Y-110445606D01*
X138332414Y-110450000D01*
X137548100Y-110450000D01*
X137548100Y-110884474D01*
X137528415Y-110951513D01*
X137475611Y-110997268D01*
X137406453Y-111007212D01*
X137376649Y-110999036D01*
X137369754Y-110996180D01*
X137354520Y-110989870D01*
X137354516Y-110989869D01*
X137354512Y-110989868D01*
X137151569Y-110949500D01*
X137151565Y-110949500D01*
X136944635Y-110949500D01*
X136944630Y-110949500D01*
X136741687Y-110989868D01*
X136741680Y-110989870D01*
X136719551Y-110999036D01*
X136650082Y-111006503D01*
X136587603Y-110975228D01*
X136551951Y-110915138D01*
X136548100Y-110884474D01*
X136548100Y-110450000D01*
X135763786Y-110450000D01*
X135768180Y-110445606D01*
X135820841Y-110354394D01*
X135848100Y-110252661D01*
X135848100Y-110147339D01*
X135820841Y-110045606D01*
X135768180Y-109954394D01*
X135763786Y-109950000D01*
X136548100Y-109950000D01*
X136548100Y-109052172D01*
X136548099Y-109052155D01*
X136541698Y-108992627D01*
X136541696Y-108992620D01*
X136491454Y-108857913D01*
X136491450Y-108857906D01*
X136405290Y-108742812D01*
X136405287Y-108742809D01*
X136290193Y-108656649D01*
X136290186Y-108656645D01*
X136155479Y-108606403D01*
X136155472Y-108606401D01*
X136095944Y-108600000D01*
X135698100Y-108600000D01*
X135698100Y-109884314D01*
X135693706Y-109879920D01*
X135602494Y-109827259D01*
X135500761Y-109800000D01*
X135395439Y-109800000D01*
X135293706Y-109827259D01*
X135202494Y-109879920D01*
X135198100Y-109884314D01*
X135198100Y-108600000D01*
X134800255Y-108600000D01*
X134740727Y-108606401D01*
X134740720Y-108606403D01*
X134606013Y-108656645D01*
X134606006Y-108656649D01*
X134490912Y-108742809D01*
X134490909Y-108742812D01*
X134404749Y-108857906D01*
X134404745Y-108857913D01*
X134354503Y-108992620D01*
X134354501Y-108992627D01*
X134348100Y-109052155D01*
X131048137Y-109052155D01*
X131048137Y-106124000D01*
X131067822Y-106056961D01*
X131120626Y-106011206D01*
X131172137Y-106000000D01*
X142924137Y-106000000D01*
X142991176Y-106019685D01*
G37*
%TD.AperFunction*%
%TD*%
%TA.AperFunction,Conductor*%
%TO.N,GND*%
G36*
X73943039Y-106019685D02*
G01*
X73988794Y-106072489D01*
X74000000Y-106124000D01*
X74000000Y-117876000D01*
X73980315Y-117943039D01*
X73927511Y-117988794D01*
X73876000Y-118000000D01*
X62124000Y-118000000D01*
X62056961Y-117980315D01*
X62011206Y-117927511D01*
X62000000Y-117876000D01*
X62000000Y-109052155D01*
X65300000Y-109052155D01*
X65300000Y-109950000D01*
X66084314Y-109950000D01*
X66079920Y-109954394D01*
X66027259Y-110045606D01*
X66000000Y-110147339D01*
X66000000Y-110252661D01*
X66027259Y-110354394D01*
X66079920Y-110445606D01*
X66084314Y-110450000D01*
X65300000Y-110450000D01*
X65300000Y-111347844D01*
X65306401Y-111407372D01*
X65306403Y-111407379D01*
X65356645Y-111542086D01*
X65356649Y-111542093D01*
X65442809Y-111657187D01*
X65442812Y-111657190D01*
X65557906Y-111743350D01*
X65557913Y-111743354D01*
X65692620Y-111793596D01*
X65692627Y-111793598D01*
X65752155Y-111799999D01*
X65752172Y-111800000D01*
X66150000Y-111800000D01*
X66150000Y-110515686D01*
X66154394Y-110520080D01*
X66245606Y-110572741D01*
X66347339Y-110600000D01*
X66452661Y-110600000D01*
X66554394Y-110572741D01*
X66645606Y-110520080D01*
X66650000Y-110515686D01*
X66650000Y-111800000D01*
X66825500Y-111800000D01*
X66834185Y-111802550D01*
X66843147Y-111801262D01*
X66867187Y-111812240D01*
X66892539Y-111819685D01*
X66898466Y-111826525D01*
X66906703Y-111830287D01*
X66920992Y-111852521D01*
X66938294Y-111872489D01*
X66940581Y-111883003D01*
X66944477Y-111889065D01*
X66949500Y-111924000D01*
X66949500Y-112076000D01*
X66929815Y-112143039D01*
X66877011Y-112188794D01*
X66825500Y-112200000D01*
X66650000Y-112200000D01*
X66650000Y-113484314D01*
X66645606Y-113479920D01*
X66554394Y-113427259D01*
X66452661Y-113400000D01*
X66347339Y-113400000D01*
X66245606Y-113427259D01*
X66154394Y-113479920D01*
X66150000Y-113484314D01*
X66150000Y-112200000D01*
X65752155Y-112200000D01*
X65692627Y-112206401D01*
X65692620Y-112206403D01*
X65557913Y-112256645D01*
X65557906Y-112256649D01*
X65442812Y-112342809D01*
X65442809Y-112342812D01*
X65356649Y-112457906D01*
X65356645Y-112457913D01*
X65306403Y-112592620D01*
X65306401Y-112592627D01*
X65300000Y-112652155D01*
X65300000Y-113550000D01*
X66084314Y-113550000D01*
X66079920Y-113554394D01*
X66027259Y-113645606D01*
X66000000Y-113747339D01*
X66000000Y-113852661D01*
X66027259Y-113954394D01*
X66079920Y-114045606D01*
X66084314Y-114050000D01*
X65300000Y-114050000D01*
X65300000Y-114947844D01*
X65306401Y-115007372D01*
X65306403Y-115007379D01*
X65356645Y-115142086D01*
X65356649Y-115142093D01*
X65442809Y-115257187D01*
X65442812Y-115257190D01*
X65557906Y-115343350D01*
X65557913Y-115343354D01*
X65692620Y-115393596D01*
X65692627Y-115393598D01*
X65752155Y-115399999D01*
X65752172Y-115400000D01*
X66150000Y-115400000D01*
X66150000Y-114115686D01*
X66154394Y-114120080D01*
X66245606Y-114172741D01*
X66347339Y-114200000D01*
X66452661Y-114200000D01*
X66554394Y-114172741D01*
X66645606Y-114120080D01*
X66650000Y-114115686D01*
X66650000Y-115400000D01*
X67047828Y-115400000D01*
X67047844Y-115399999D01*
X67107372Y-115393598D01*
X67107379Y-115393596D01*
X67242086Y-115343354D01*
X67242093Y-115343350D01*
X67357187Y-115257190D01*
X67357190Y-115257187D01*
X67443350Y-115142093D01*
X67443354Y-115142086D01*
X67493596Y-115007379D01*
X67493598Y-115007372D01*
X67499999Y-114947844D01*
X67500000Y-114947827D01*
X67500000Y-114050000D01*
X66715686Y-114050000D01*
X66720080Y-114045606D01*
X66772741Y-113954394D01*
X66800000Y-113852661D01*
X66800000Y-113747339D01*
X66772741Y-113645606D01*
X66720080Y-113554394D01*
X66715686Y-113550000D01*
X67500000Y-113550000D01*
X67500000Y-113115525D01*
X67519685Y-113048486D01*
X67572489Y-113002731D01*
X67641647Y-112992787D01*
X67671451Y-113000964D01*
X67693580Y-113010130D01*
X67886410Y-113048486D01*
X67896530Y-113050499D01*
X67896534Y-113050500D01*
X67896535Y-113050500D01*
X68103466Y-113050500D01*
X68103467Y-113050499D01*
X68306420Y-113010130D01*
X68328546Y-113000964D01*
X68398015Y-112993495D01*
X68460494Y-113024769D01*
X68496148Y-113084857D01*
X68500000Y-113115525D01*
X68500000Y-113550000D01*
X69284314Y-113550000D01*
X69279920Y-113554394D01*
X69227259Y-113645606D01*
X69200000Y-113747339D01*
X69200000Y-113852661D01*
X69227259Y-113954394D01*
X69279920Y-114045606D01*
X69284314Y-114050000D01*
X68500000Y-114050000D01*
X68500000Y-114947844D01*
X68506401Y-115007372D01*
X68506403Y-115007379D01*
X68556645Y-115142086D01*
X68556649Y-115142093D01*
X68642809Y-115257187D01*
X68642812Y-115257190D01*
X68757906Y-115343350D01*
X68757913Y-115343354D01*
X68892620Y-115393596D01*
X68892627Y-115393598D01*
X68952155Y-115399999D01*
X68952172Y-115400000D01*
X69350000Y-115400000D01*
X69350000Y-114115686D01*
X69354394Y-114120080D01*
X69445606Y-114172741D01*
X69547339Y-114200000D01*
X69652661Y-114200000D01*
X69754394Y-114172741D01*
X69845606Y-114120080D01*
X69850000Y-114115686D01*
X69850000Y-115400000D01*
X70247828Y-115400000D01*
X70247844Y-115399999D01*
X70307372Y-115393598D01*
X70307379Y-115393596D01*
X70442086Y-115343354D01*
X70442093Y-115343350D01*
X70557187Y-115257190D01*
X70557190Y-115257187D01*
X70643350Y-115142093D01*
X70643354Y-115142086D01*
X70693596Y-115007379D01*
X70693598Y-115007372D01*
X70699999Y-114947844D01*
X70700000Y-114947827D01*
X70700000Y-114050000D01*
X69915686Y-114050000D01*
X69920080Y-114045606D01*
X69972741Y-113954394D01*
X70000000Y-113852661D01*
X70000000Y-113747339D01*
X69972741Y-113645606D01*
X69920080Y-113554394D01*
X69915686Y-113550000D01*
X70700000Y-113550000D01*
X70700000Y-112652172D01*
X70699999Y-112652155D01*
X70693598Y-112592627D01*
X70693596Y-112592620D01*
X70643354Y-112457913D01*
X70643350Y-112457906D01*
X70557190Y-112342812D01*
X70557187Y-112342809D01*
X70442093Y-112256649D01*
X70442086Y-112256645D01*
X70307379Y-112206403D01*
X70307372Y-112206401D01*
X70247844Y-112200000D01*
X69850000Y-112200000D01*
X69850000Y-113484314D01*
X69845606Y-113479920D01*
X69754394Y-113427259D01*
X69652661Y-113400000D01*
X69547339Y-113400000D01*
X69445606Y-113427259D01*
X69354394Y-113479920D01*
X69350000Y-113484314D01*
X69350000Y-112200000D01*
X69174500Y-112200000D01*
X69165814Y-112197449D01*
X69156853Y-112198738D01*
X69132812Y-112187759D01*
X69107461Y-112180315D01*
X69101533Y-112173474D01*
X69093297Y-112169713D01*
X69079007Y-112147478D01*
X69061706Y-112127511D01*
X69059418Y-112116996D01*
X69055523Y-112110935D01*
X69050500Y-112076000D01*
X69050500Y-111924000D01*
X69070185Y-111856961D01*
X69122989Y-111811206D01*
X69174500Y-111800000D01*
X69350000Y-111800000D01*
X69350000Y-110515686D01*
X69354394Y-110520080D01*
X69445606Y-110572741D01*
X69547339Y-110600000D01*
X69652661Y-110600000D01*
X69754394Y-110572741D01*
X69845606Y-110520080D01*
X69850000Y-110515686D01*
X69850000Y-111800000D01*
X70247828Y-111800000D01*
X70247844Y-111799999D01*
X70307372Y-111793598D01*
X70307379Y-111793596D01*
X70442086Y-111743354D01*
X70442093Y-111743350D01*
X70557187Y-111657190D01*
X70557190Y-111657187D01*
X70643350Y-111542093D01*
X70643354Y-111542086D01*
X70693596Y-111407379D01*
X70693598Y-111407372D01*
X70699999Y-111347844D01*
X70700000Y-111347827D01*
X70700000Y-110450000D01*
X69915686Y-110450000D01*
X69920080Y-110445606D01*
X69972741Y-110354394D01*
X70000000Y-110252661D01*
X70000000Y-110147339D01*
X69972741Y-110045606D01*
X69920080Y-109954394D01*
X69915686Y-109950000D01*
X70700000Y-109950000D01*
X70700000Y-109052172D01*
X70699999Y-109052155D01*
X70693598Y-108992627D01*
X70693596Y-108992620D01*
X70643354Y-108857913D01*
X70643350Y-108857906D01*
X70557190Y-108742812D01*
X70557187Y-108742809D01*
X70442093Y-108656649D01*
X70442086Y-108656645D01*
X70307379Y-108606403D01*
X70307372Y-108606401D01*
X70247844Y-108600000D01*
X69850000Y-108600000D01*
X69850000Y-109884314D01*
X69845606Y-109879920D01*
X69754394Y-109827259D01*
X69652661Y-109800000D01*
X69547339Y-109800000D01*
X69445606Y-109827259D01*
X69354394Y-109879920D01*
X69350000Y-109884314D01*
X69350000Y-108600000D01*
X68952155Y-108600000D01*
X68892627Y-108606401D01*
X68892620Y-108606403D01*
X68757913Y-108656645D01*
X68757906Y-108656649D01*
X68642812Y-108742809D01*
X68642809Y-108742812D01*
X68556649Y-108857906D01*
X68556645Y-108857913D01*
X68506403Y-108992620D01*
X68506401Y-108992627D01*
X68500000Y-109052155D01*
X68500000Y-109950000D01*
X69284314Y-109950000D01*
X69279920Y-109954394D01*
X69227259Y-110045606D01*
X69200000Y-110147339D01*
X69200000Y-110252661D01*
X69227259Y-110354394D01*
X69279920Y-110445606D01*
X69284314Y-110450000D01*
X68500000Y-110450000D01*
X68500000Y-110884474D01*
X68480315Y-110951513D01*
X68427511Y-110997268D01*
X68358353Y-111007212D01*
X68328549Y-110999036D01*
X68321654Y-110996180D01*
X68306420Y-110989870D01*
X68306416Y-110989869D01*
X68306412Y-110989868D01*
X68103469Y-110949500D01*
X68103465Y-110949500D01*
X67896535Y-110949500D01*
X67896530Y-110949500D01*
X67693587Y-110989868D01*
X67693580Y-110989870D01*
X67671451Y-110999036D01*
X67601982Y-111006503D01*
X67539503Y-110975228D01*
X67503851Y-110915138D01*
X67500000Y-110884474D01*
X67500000Y-110450000D01*
X66715686Y-110450000D01*
X66720080Y-110445606D01*
X66772741Y-110354394D01*
X66800000Y-110252661D01*
X66800000Y-110147339D01*
X66772741Y-110045606D01*
X66720080Y-109954394D01*
X66715686Y-109950000D01*
X67500000Y-109950000D01*
X67500000Y-109052172D01*
X67499999Y-109052155D01*
X67493598Y-108992627D01*
X67493596Y-108992620D01*
X67443354Y-108857913D01*
X67443350Y-108857906D01*
X67357190Y-108742812D01*
X67357187Y-108742809D01*
X67242093Y-108656649D01*
X67242086Y-108656645D01*
X67107379Y-108606403D01*
X67107372Y-108606401D01*
X67047844Y-108600000D01*
X66650000Y-108600000D01*
X66650000Y-109884314D01*
X66645606Y-109879920D01*
X66554394Y-109827259D01*
X66452661Y-109800000D01*
X66347339Y-109800000D01*
X66245606Y-109827259D01*
X66154394Y-109879920D01*
X66150000Y-109884314D01*
X66150000Y-108600000D01*
X65752155Y-108600000D01*
X65692627Y-108606401D01*
X65692620Y-108606403D01*
X65557913Y-108656645D01*
X65557906Y-108656649D01*
X65442812Y-108742809D01*
X65442809Y-108742812D01*
X65356649Y-108857906D01*
X65356645Y-108857913D01*
X65306403Y-108992620D01*
X65306401Y-108992627D01*
X65300000Y-109052155D01*
X62000000Y-109052155D01*
X62000000Y-106124000D01*
X62019685Y-106056961D01*
X62072489Y-106011206D01*
X62124000Y-106000000D01*
X73876000Y-106000000D01*
X73943039Y-106019685D01*
G37*
%TD.AperFunction*%
%TD*%
M02*
