M48
; DRILL file {KiCad 9.0.4} date 2026-03-02T17:36:20-0800
; FORMAT={-:-/ absolute / metric / decimal}
; #@! TF.CreationDate,2026-03-02T17:36:20-08:00
; #@! TF.GenerationSoftware,Kicad,Pcbnew,9.0.4
; #@! TF.FileFunction,NonPlated,1,2,NPTH
FMAT,2
METRIC
; #@! TA.AperFunction,NonPlated,NPTH,ComponentDrill
T1C1.000
%
G90
G05
T1
X24.387Y-92.017
X24.468Y-85.987
X24.639Y-83.02
X24.764Y-89.098
X25.694Y-94.655
X26.142Y-26.977
X26.142Y-37.023
X26.354Y-29.971
X26.354Y-34.029
X26.456Y-80.693
X26.514Y-86.68
X27.065Y-24.173
X27.084Y-39.861
X27.657Y-32.657
X28.154Y-90.454
X28.244Y-96.13
X29.04Y-21.895
X29.04Y-42.105
X29.06Y-85.126
X29.065Y-94.763
X29.162Y-83.242
X29.203Y-80.29
X29.385Y-91.773
X29.815Y-29.3
X29.815Y-34.7
X29.908Y-97.567
X30.474Y-88.973
X30.492Y-77.597
X31.004Y-91.488
X31.225Y-96.22
X31.691Y-20.596
X31.691Y-43.404
X31.931Y-84.239
X32.047Y-99.664
X32.183Y-80.019
X32.461Y-27.908
X32.477Y-36.099
X32.97Y-75.964
X33.409Y-93.086
X33.869Y-82.053
X34.045Y-95.146
X34.685Y-20.425
X34.685Y-43.575
X34.944Y-100.189
X35.012Y-26.341
X35.029Y-37.67
X35.563Y-79.57
X35.925Y-76.033
X36.524Y-93.455
X37.426Y-82.852
X37.506Y-21.419
X37.506Y-42.581
X37.655Y-24.909
X37.655Y-39.091
X37.658Y-99.028
X37.945Y-77.804
X39.436Y-93.395
X39.527Y-96.709
X39.728Y-23.386
X39.852Y-98.751
X39.917Y-80.192
X40.479Y-83.124
X40.596Y-39.606
X40.621Y-90.832
X40.87Y-77.214
X40.999Y-86.03
X41.084Y-26.047
X41.084Y-37.953
X41.269Y-31.983
X41.451Y-34.974
X41.452Y-29.003
X42.421Y-93.59
X42.481Y-88.572
X42.808Y-98.293
X43.38Y-82.549
X43.525Y-24.978
X43.525Y-39.022
X43.656Y-78.226
X44.461Y-86.331
X44.937Y-90.521
X44.957Y-96.279
X45.284Y-92.786
X45.366Y-80.641
X45.561Y-83.556
X46.02Y-26.614
X46.02Y-37.386
X47.532Y-90.826
X47.7Y-29.074
X47.7Y-34.926
X47.992Y-86.004
X48.295Y-32.0
X48.416Y-88.0
X67.193Y-36.794
X67.344Y-25.248
X67.356Y-28.197
X67.685Y-39.707
X68.0Y-82.0
X68.0Y-85.0
X68.0Y-88.0
X68.0Y-91.0
X68.0Y-94.0
X68.107Y-33.922
X68.627Y-30.889
X68.831Y-22.701
X69.629Y-41.925
X69.978Y-31.622
X70.766Y-33.019
X71.429Y-82.0
X71.429Y-85.0
X71.429Y-88.0
X71.429Y-91.0
X71.429Y-94.0
X71.483Y-21.301
X72.437Y-29.931
X72.476Y-42.849
X73.34Y-34.54
X74.45Y-21.274
X74.857Y-82.0
X74.857Y-85.0
X74.857Y-88.0
X74.857Y-91.0
X74.857Y-94.0
X74.941Y-28.325
X75.343Y-36.599
X75.429Y-42.473
X75.695Y-25.447
X75.91Y-39.551
X76.543Y-22.585
X77.001Y-42.322
X78.081Y-41.122
X78.186Y-20.06
X78.286Y-82.0
X78.286Y-85.0
X78.286Y-88.0
X78.286Y-91.0
X78.286Y-94.0
X78.888Y-44.606
X79.605Y-24.143
X80.337Y-39.14
X80.601Y-18.338
X81.543Y-45.974
X81.714Y-82.0
X81.714Y-85.0
X81.714Y-88.0
X81.714Y-91.0
X81.714Y-94.0
X81.895Y-26.04
X82.911Y-37.849
X83.525Y-17.906
X84.509Y-45.876
X84.867Y-25.885
X85.143Y-82.0
X85.143Y-85.0
X85.143Y-88.0
X85.143Y-91.0
X85.143Y-94.0
X85.878Y-38.22
X86.27Y-19.099
X86.463Y-32.961
X86.895Y-30.114
X86.966Y-44.212
X87.732Y-35.668
X87.886Y-25.803
X87.993Y-21.492
X88.083Y-27.356
X88.309Y-41.545
X88.547Y-24.416
X88.571Y-82.0
X88.571Y-85.0
X88.571Y-88.0
X88.571Y-91.0
X88.571Y-94.0
X88.844Y-38.051
X90.751Y-26.564
X91.646Y-36.953
X92.0Y-82.0
X92.0Y-85.0
X92.0Y-88.0
X92.0Y-91.0
X92.0Y-94.0
X93.179Y-28.35
X93.767Y-34.851
X94.59Y-32.0
X111.39Y-84.762
X111.682Y-92.174
X111.806Y-89.288
X112.333Y-87.486
X113.135Y-82.442
X113.546Y-28.998
X113.611Y-33.999
X113.841Y-87.2
X113.867Y-36.944
X114.189Y-31.938
X114.261Y-26.116
X114.459Y-94.773
X114.679Y-79.247
X114.73Y-89.304
X115.201Y-97.609
X115.432Y-39.482
X115.478Y-91.945
X115.984Y-84.826
X115.997Y-34.311
X116.08Y-81.837
X116.21Y-23.86
X116.763Y-29.108
X116.943Y-77.474
X117.02Y-94.096
X117.568Y-90.293
X117.896Y-98.546
X117.965Y-41.031
X117.979Y-87.143
X118.592Y-35.788
X118.804Y-27.027
X118.883Y-30.029
X118.941Y-22.728
X118.959Y-82.318
X118.971Y-95.038
X119.029Y-33.021
X119.289Y-97.971
X119.316Y-84.944
X119.329Y-38.897
X119.383Y-92.083
X119.779Y-24.207
X119.818Y-78.036
X120.232Y-76.214
X120.699Y-97.447
X120.968Y-100.456
X121.027Y-41.349
X121.517Y-36.416
X121.834Y-82.816
X121.903Y-22.887
X122.445Y-27.363
X122.86Y-75.077
X122.895Y-95.432
X123.179Y-80.106
X123.574Y-42.854
X123.725Y-40.326
X123.781Y-100.658
X124.158Y-82.077
X124.293Y-37.476
X124.549Y-24.252
X124.558Y-20.913
X124.832Y-77.634
X125.076Y-93.548
X125.887Y-98.613
X126.483Y-26.501
X126.534Y-43.09
X126.689Y-79.26
X126.766Y-81.44
X126.928Y-95.787
X127.124Y-38.479
X127.298Y-76.019
X127.356Y-92.807
X127.445Y-35.704
X127.526Y-21.147
X127.957Y-29.125
X128.111Y-25.409
X128.277Y-100.118
X129.291Y-41.956
X129.319Y-33.392
X129.377Y-90.08
X129.436Y-80.001
X129.776Y-84.976
X129.964Y-92.026
X129.997Y-31.338
X130.066Y-22.703
X130.097Y-76.572
X130.107Y-38.422
X130.339Y-96.279
X130.429Y-87.382
X130.744Y-98.628
X130.956Y-82.209
X131.23Y-39.724
X131.307Y-79.28
X131.539Y-33.873
X131.648Y-25.236
X131.936Y-84.05
X131.995Y-28.176
X132.796Y-37.183
X132.897Y-89.039
X132.932Y-91.782
X133.346Y-96.266
X133.543Y-27.473
X133.639Y-86.271
X134.717Y-34.896
X134.927Y-80.871
X135.087Y-29.993
X135.223Y-83.759
X135.332Y-94.23
X135.411Y-32.0
X135.652Y-90.566
X137.048Y-88.0
M30
